<svg width="1009" height="371" viewBox="0 0 1009 371" fill="none" xmlns="http://www.w3.org/2000/svg">
<path d="M411.561 190.087H449.038V212.172H382.952V94.7231H411.561V190.087ZM506.853 213.51C497.707 213.51 489.453 211.558 482.091 207.655C474.841 203.751 469.097 198.174 464.859 190.924C460.732 183.674 458.668 175.197 458.668 165.494C458.668 155.901 460.788 147.48 465.026 140.23C469.265 132.869 475.064 127.236 482.426 123.332C489.787 119.429 498.041 117.477 507.187 117.477C516.333 117.477 524.587 119.429 531.948 123.332C539.31 127.236 545.11 132.869 549.348 140.23C553.587 147.48 555.706 155.901 555.706 165.494C555.706 175.086 553.531 183.563 549.181 190.924C544.943 198.174 539.087 203.751 531.614 207.655C524.252 211.558 515.999 213.51 506.853 213.51ZM506.853 188.749C512.318 188.749 516.947 186.741 520.739 182.726C524.643 178.711 526.595 172.967 526.595 165.494C526.595 158.021 524.699 152.276 520.906 148.261C517.226 144.246 512.653 142.238 507.187 142.238C501.61 142.238 496.982 144.246 493.301 148.261C489.62 152.165 487.78 157.909 487.78 165.494C487.78 172.967 489.564 178.711 493.133 182.726C496.814 186.741 501.387 188.749 506.853 188.749ZM608.026 117.477C614.606 117.477 620.351 118.815 625.258 121.492C630.277 124.169 634.125 127.682 636.802 132.032V118.815H665.412V212.005C665.412 220.593 663.683 228.345 660.225 235.26C656.879 242.287 651.693 247.864 644.666 251.991C637.75 256.118 629.106 258.181 618.733 258.181C604.903 258.181 593.693 254.891 585.105 248.31C576.516 241.841 571.609 233.029 570.382 221.876H598.657C599.549 225.445 601.668 228.233 605.014 230.241C608.36 232.36 612.487 233.42 617.395 233.42C623.306 233.42 627.991 231.691 631.448 228.233C635.018 224.887 636.802 219.478 636.802 212.005V198.787C634.014 203.137 630.166 206.707 625.258 209.495C620.351 212.172 614.606 213.51 608.026 213.51C600.33 213.51 593.358 211.558 587.112 207.655C580.866 203.639 575.903 198.007 572.222 190.757C568.653 183.395 566.868 174.918 566.868 165.326C566.868 155.734 568.653 147.313 572.222 140.063C575.903 132.813 580.866 127.236 587.112 123.332C593.358 119.429 600.33 117.477 608.026 117.477ZM636.802 165.494C636.802 158.355 634.795 152.722 630.779 148.596C626.875 144.469 622.079 142.405 616.391 142.405C610.703 142.405 605.851 144.469 601.835 148.596C597.932 152.611 595.98 158.188 595.98 165.326C595.98 172.465 597.932 178.153 601.835 182.391C605.851 186.518 610.703 188.582 616.391 188.582C622.079 188.582 626.875 186.518 630.779 182.391C634.795 178.265 636.802 172.632 636.802 165.494ZM702.171 109.111C697.151 109.111 693.024 107.661 689.79 104.761C686.667 101.75 685.105 98.0692 685.105 93.7193C685.105 89.2578 686.667 85.577 689.79 82.6771C693.024 79.6656 697.151 78.1598 702.171 78.1598C707.078 78.1598 711.094 79.6656 714.217 82.6771C717.451 85.577 719.068 89.2578 719.068 93.7193C719.068 98.0692 717.451 101.75 714.217 104.761C711.094 107.661 707.078 109.111 702.171 109.111ZM716.392 118.815V212.172H687.782V118.815H716.392ZM767.407 88.3655V212.172H738.797V88.3655H767.407ZM784.124 165.326C784.124 155.734 785.909 147.313 789.478 140.063C793.159 132.813 798.122 127.236 804.368 123.332C810.614 119.429 817.585 117.477 825.282 117.477C831.862 117.477 837.606 118.815 842.514 121.492C847.533 124.169 851.381 127.682 854.058 132.032V118.815H882.668V212.172H854.058V198.955C851.27 203.305 847.366 206.818 842.347 209.495C837.439 212.172 831.695 213.51 825.114 213.51C817.53 213.51 810.614 211.558 804.368 207.655C798.122 203.639 793.159 198.007 789.478 190.757C785.909 183.395 784.124 174.918 784.124 165.326ZM854.058 165.494C854.058 158.355 852.051 152.722 848.035 148.596C844.131 144.469 839.335 142.405 833.647 142.405C827.958 142.405 823.107 144.469 819.091 148.596C815.187 152.611 813.236 158.188 813.236 165.326C813.236 172.465 815.187 178.153 819.091 182.391C823.107 186.518 827.958 188.582 833.647 188.582C839.335 188.582 844.131 186.518 848.035 182.391C852.051 178.265 854.058 172.632 854.058 165.494ZM933.647 132.032C936.324 127.682 940.172 124.169 945.192 121.492C950.211 118.815 955.955 117.477 962.424 117.477C970.12 117.477 977.091 119.429 983.337 123.332C989.583 127.236 994.491 132.813 998.06 140.063C1001.74 147.313 1003.58 155.734 1003.58 165.326C1003.58 174.918 1001.74 183.395 998.06 190.757C994.491 198.007 989.583 203.639 983.337 207.655C977.091 211.558 970.12 213.51 962.424 213.51C955.843 213.51 950.099 212.228 945.192 209.662C940.284 206.985 936.436 203.472 933.647 199.122V212.172H905.038V88.3655H933.647V132.032ZM974.47 165.326C974.47 158.188 972.462 152.611 968.447 148.596C964.543 144.469 959.691 142.405 953.891 142.405C948.203 142.405 943.351 144.469 939.336 148.596C935.432 152.722 933.48 158.355 933.48 165.494C933.48 172.632 935.432 178.265 939.336 182.391C943.351 186.518 948.203 188.582 953.891 188.582C959.58 188.582 964.432 186.518 968.447 182.391C972.462 178.153 974.47 172.465 974.47 165.326Z" fill="#253858"/>
<path d="M372.487 257.522V268.716H387.519V275.816H372.487V287.649H389.438V294.941H363.532V250.23H389.438V257.522H372.487ZM427.001 287.841H441.713V294.941H418.045V250.293H427.001V287.841ZM506.061 294.941H497.106L476.829 264.302V294.941H467.874V250.23H476.829L497.106 280.933V250.23H506.061V294.941Z" fill="#253858"/>
<path d="M877.207 277.133H889.146V282.895H869.94V246.663H877.207V277.133ZM912.451 246.663V282.895H905.184V246.663H912.451ZM955.707 246.663V252.528H946.052V282.895H938.785V252.528H929.131V246.663H955.707ZM979.696 252.528V261.612H991.895V267.374H979.696V276.977H993.452V282.895H972.429V246.611H993.452V252.528H979.696Z" fill="#253858"/>
<path d="M111.074 72.9883C105.241 104.821 97.0388 137.857 80.2572 165.55C77.0213 170.893 72.9199 177.515 67.8403 182.482C75.7043 182.369 83.6061 182.294 91.4701 182.181C93.5019 175.86 95.1198 169.501 96.6249 163.669C104.188 134.019 108.402 103.541 111.074 72.9883Z" fill="#1368E4"/>
<path d="M104.754 152.729C102.684 162.249 100.389 172.333 97.2284 182.078C96.9274 182.981 96.6263 183.884 96.3253 184.787C96.0243 185.69 95.6856 186.594 95.3846 187.497C92.1863 196.226 88.1226 204.541 82.6667 211.728C81.6132 213.083 80.3715 214.663 78.9041 216.13C84.3976 216.544 89.9288 216.921 95.4599 217.335C99.185 207.627 102.007 197.505 104.265 187.384C104.453 186.481 104.641 185.578 104.829 184.675C105.017 183.771 105.205 182.868 105.393 182.003C106.183 178.127 106.974 174.252 107.651 170.376C109.118 162.287 110.398 154.122 111.489 145.957V115.027C109.683 127.67 107.5 140.275 104.754 152.729Z" fill="#1469E5"/>
<path d="M111.525 67.8711C111.374 69.6019 111.261 71.2951 111.111 72.9883C111.261 72.1981 111.412 71.4456 111.525 70.6554V67.8711Z" fill="#FCFCFC"/>
<path d="M111.527 236.262V223.921V221.249V218.503V187.272V184.563V181.892V179.258C111.376 180.161 111.188 181.026 111 181.892C110.812 182.795 110.624 183.698 110.436 184.601C110.247 185.504 110.022 186.407 109.833 187.31C107.501 197.657 104.641 207.854 100.954 217.75C100.615 218.653 100.314 219.518 99.9753 220.422C99.6366 221.287 99.298 222.152 98.9594 222.98C97.793 225.802 96.5889 228.586 95.3096 231.296C93.1272 235.886 90.5309 241.342 87.1445 245.707C96.0244 246.121 104.904 246.534 113.784 246.948C112.279 243.712 111.527 240.176 111.527 236.262Z" fill="#1368E4"/>
<path d="M116.793 251.993C115.552 250.412 114.536 248.757 113.746 246.988C104.866 246.575 95.9858 246.161 87.1059 245.747C90.53 241.382 93.0885 235.926 95.2709 231.336C96.5878 228.627 97.7919 225.842 98.9207 223.02C99.2593 222.155 99.598 221.289 99.9367 220.461C100.275 219.558 100.576 218.693 100.915 217.79C104.602 207.932 107.462 197.697 109.795 187.35C109.983 186.447 110.209 185.544 110.397 184.641C110.585 183.738 110.773 182.835 110.961 181.932C111.149 181.066 111.3 180.163 111.488 179.298V150.852V145.998C110.397 154.163 109.155 162.291 107.65 170.418C106.935 174.256 106.183 178.169 105.392 182.045C105.204 182.948 105.016 183.851 104.828 184.716C104.64 185.619 104.452 186.522 104.264 187.425C101.968 197.584 99.1465 207.668 95.4591 217.376C89.9279 216.962 84.4343 216.586 78.9032 216.172C80.333 214.705 81.6123 213.124 82.6659 211.77C88.1218 204.583 92.1855 196.267 95.3837 187.538C95.7224 186.635 96.0234 185.732 96.3244 184.829C96.6254 183.926 96.9265 183.023 97.2275 182.12C100.388 172.374 102.683 162.253 104.753 152.771C107.5 140.316 109.682 127.712 111.488 115.069V88.9183V76.6144V70.707C111.337 71.4971 111.187 72.2873 111.074 73.0398C108.365 103.593 104.188 134.07 96.663 163.683C95.158 169.552 93.54 175.911 91.5082 182.195C83.6442 182.27 75.7426 182.383 67.8786 182.496C72.9206 177.567 77.0596 170.945 80.2955 165.564C97.077 137.871 105.28 104.834 111.112 73.0021C111.262 71.2713 111.413 69.5782 111.526 67.885V60.6606V59.1932V53.9255V53.2857C111.526 52.9471 111.45 52.6085 111.413 52.2699C111.262 49.7865 110.886 47.3783 110.397 45.0078C105.731 79.4739 98.4316 114.015 84.5097 145.547C81.8382 151.604 78.9409 157.512 75.5921 163.194C73.8613 166.128 71.9799 168.875 69.9857 171.622C68.1043 174.256 65.8844 176.513 63.6644 178.809C62.4603 180.05 61.1434 180.953 59.676 181.856C59.0363 182.27 58.3967 182.684 57.9452 183.324C57.6065 183.775 56.9292 184.791 56.9668 185.356C57.0797 187.011 58.7353 187.877 60.1651 187.99C62.498 188.178 64.8308 187.801 67.1637 187.801C71.9423 187.801 76.7209 187.651 81.5371 187.651C84.2462 187.651 86.9554 187.576 89.6645 187.576C86.3534 196.569 81.9886 205.147 75.7802 211.619C74.9524 212.485 74.087 213.388 73.0711 214.065C71.6036 215.081 69.459 215.307 68.2925 216.736C67.0885 218.242 68.1796 220.386 69.8728 220.988C71.9423 221.778 74.3128 221.44 76.4951 221.477C78.9033 221.515 81.3113 221.666 83.7194 221.854C85.3374 221.967 86.9553 222.079 88.5733 222.23C89.0248 222.268 93.2391 222.794 93.352 222.569C91.5083 226.933 89.4764 231.223 87.1811 235.324C85.9018 237.582 84.6225 239.839 83.155 241.984C82.4401 243.038 81.6123 244.016 80.6717 244.881C79.8439 245.634 78.7528 246.386 78.4141 247.515C78.1131 248.569 78.8656 249.848 79.8063 250.375C81.6124 251.353 83.7947 251.014 85.7513 251.09C88.2347 251.165 90.718 251.315 93.1638 251.428C98.3186 251.692 103.474 251.918 108.628 252.181C110.096 252.256 111.563 252.331 113.031 252.369C113.746 252.407 114.461 252.444 115.175 252.482C115.476 252.482 117.094 252.369 117.245 252.557C117.094 252.331 116.944 252.181 116.793 251.993Z" fill="white"/>
<path d="M246.268 56.8614C246.268 61.4142 242.581 65.1016 238.028 65.1016H144.224C139.671 65.1016 135.984 61.4142 135.984 56.8614C135.984 52.3085 139.671 48.6211 144.224 48.6211H238.028C242.543 48.6211 246.268 52.3085 246.268 56.8614Z" fill="#2883FE"/>
<path d="M246.268 99.8226C246.268 104.375 242.581 108.063 238.028 108.063H144.224C139.671 108.063 135.984 104.375 135.984 99.8226C135.984 95.2697 139.671 91.5823 144.224 91.5823H238.028C242.543 91.5447 246.268 95.2697 246.268 99.8226Z" fill="#2883FE"/>
<path d="M246.268 185.689C246.268 190.242 242.581 193.93 238.028 193.93H144.224C139.671 193.93 135.984 190.242 135.984 185.689C135.984 181.137 139.671 177.449 144.224 177.449H238.028C242.543 177.449 246.268 181.137 246.268 185.689Z" fill="#2883FE"/>
<path d="M246.268 228.65C246.268 233.203 242.581 236.891 238.028 236.891H144.224C139.671 236.891 135.984 233.203 135.984 228.65C135.984 224.098 139.671 220.41 144.224 220.41H238.028C242.543 220.41 246.268 224.098 246.268 228.65Z" fill="#2883FE"/>
<path d="M218.724 142.752C218.724 147.305 215.036 150.992 210.483 150.992H144.185C139.632 150.992 135.945 147.305 135.945 142.752C135.945 138.199 139.632 134.512 144.185 134.512H210.483C215.036 134.512 218.724 138.199 218.724 142.752Z" fill="#2883FE"/>
<path d="M247.848 262.484H242.806H218.649H196.261H195.584H192.047H179.48H176.658H148.099H138.278C130.904 262.484 124.582 259.963 119.352 254.921C118.863 254.432 118.374 253.943 117.922 253.416C117.659 253.115 117.433 252.814 117.207 252.551C105.167 251.986 93.1263 251.422 81.0858 250.858C80.5214 250.82 79.9946 250.594 79.5431 250.256C79.3925 250.143 79.242 250.03 79.1291 249.879C78.1884 248.863 77.8122 247.321 79.1291 246.267C82.7413 243.332 84.7731 239.57 87.1436 235.356C89.4765 231.254 91.4708 226.965 93.3145 222.6C85.601 222.036 77.8875 221.471 70.174 220.907C66.75 220.681 66.5994 215.639 70.0987 215.526C68.9323 215.564 71.491 214.962 70.8889 215.263C73.2218 214.134 73.9367 213.457 75.6675 211.651C81.8759 205.179 86.2406 196.638 89.5518 187.607C79.5431 187.72 69.572 187.87 59.5632 187.983C57.0046 188.021 55.65 184.221 58.1334 182.979C58.5849 182.753 58.9988 182.49 59.375 182.226C70.3997 174.663 78.7906 158.371 84.3969 145.616C98.3188 114.084 105.656 79.543 110.284 45.0769C110.058 44.061 109.795 43.045 109.532 42.0667H109.569C104.076 17.9856 82.5532 0 56.7789 0C49.3288 0 42.2172 1.5427 35.7454 4.28945C35.4068 4.40233 35.0682 4.55284 34.7296 4.70335C34.4662 4.81623 34.1651 4.92913 33.9018 5.07964C14.6745 13.2823 1.01592 31.9828 0.112876 53.9944H0V56.3273V60.7297V260.829C0 267.827 0.602033 274.638 1.76846 281.185C5.60639 302.933 15.7656 322.085 32.359 338.641C53.9192 360.201 79.844 371 110.171 371H117.546H239.72H245.477C245.552 371 245.665 370.962 245.741 370.962H247.659C277.573 370.962 301.842 346.693 301.842 316.78C302.03 286.716 277.761 262.484 247.848 262.484Z" fill="#2883FE"/>
<path opacity="0.7" d="M247.848 262.404H242.806H218.65H196.262H195.584H192.047H179.48H176.658H148.099H138.279C130.904 262.404 124.583 259.883 119.353 254.841C118.826 254.352 118.374 253.863 117.923 253.336C117.659 253.035 117.434 252.734 117.208 252.471C105.167 251.907 93.1267 251.342 81.0862 250.778C80.5218 250.74 79.995 250.514 79.5435 250.176L134.253 370.807H239.909H245.666C245.741 370.807 245.854 370.807 245.929 370.77H247.848C277.761 370.77 302.031 346.5 302.031 316.587C302.031 286.674 277.761 262.404 247.848 262.404Z" fill="url(#paint0_linear_167_97)"/>
<defs>
<linearGradient id="paint0_linear_167_97" x1="79.5664" y1="310.495" x2="302.038" y2="310.495" gradientUnits="userSpaceOnUse">
<stop stop-color="#095CD8"/>
<stop offset="0.7672" stop-color="#207AF5"/>
</linearGradient>
</defs>
</svg>
