<svg width="651" height="954" viewBox="0 0 651 954" fill="none" xmlns="http://www.w3.org/2000/svg">
<path d="M0.0805394 513.263C0.0805394 374.18 0.0805394 235.097 0.0805394 96.0132C0.0805394 76.3926 2.44305 74.0827 22.5244 74.0827C64.7811 74.0827 107.038 74.1606 149.294 74.0049C155.416 74.0049 159.335 74.1866 160.839 81.8428C162.959 92.5874 173.269 98.375 180.759 105.616C185.591 110.262 187.202 113.999 184.41 120.721C181.564 127.572 176.839 126.768 171.577 126.768C164.866 126.768 158.154 126.586 151.469 126.898C137.831 127.546 127.817 136.604 127.441 149.659C126.931 167.151 126.985 184.669 127.441 202.162C127.737 213.997 136.22 223.028 148.489 224.534C157.08 225.598 165.886 225.546 174.584 225.312C180.329 225.156 182.692 227.518 184.813 232.371C186.96 237.329 186.692 240.651 182.477 244.284C177.215 248.8 172.329 253.731 167.523 258.714C157.161 269.511 156.57 283.136 166.799 293.673C178.477 305.741 190.612 317.42 203.068 328.736C214.022 338.676 228.143 338.39 239.365 328.684C244.117 324.583 248.6 320.171 252.923 315.655C257.03 311.347 260.494 308.959 267.474 311.659C274.776 314.462 274.507 319.029 274.373 324.583C274.239 330.423 274.239 336.262 274.373 342.076C274.776 356.636 284.119 366.939 299.153 367.588C316.227 368.34 333.382 368.289 350.457 367.666C365.867 367.095 375.505 357.103 376.471 341.946C376.874 335.484 376.928 328.969 376.471 322.507C376.095 316.875 378.082 313.994 383.612 311.633C389.384 309.167 392.821 310.335 396.66 314.487C401.358 319.548 406.405 324.35 411.614 328.917C422.352 338.364 436.527 338.65 446.971 329.099C459.401 317.732 471.482 306.027 483.267 294.062C493.764 283.421 493.657 270.185 483.482 259.103C478.811 254.016 473.737 249.241 468.582 244.621C464.851 241.273 462.918 238.419 465.388 232.968C467.911 227.388 470.811 224.975 477.254 225.338C484.932 225.779 492.717 225.65 500.342 224.845C513.873 223.392 523.188 214.1 523.618 200.968C524.182 184.124 524.262 167.229 523.564 150.411C523.001 136.604 512.289 127.339 497.872 126.898C490.838 126.69 483.751 126.43 476.744 126.949C470.623 127.391 468.072 124.769 465.656 119.657C463.025 114.129 464.663 111.014 468.636 107.095C477.63 98.1933 489.12 90.9264 491.268 77.0674C491.805 73.5637 495.214 74.1606 497.791 74.1606C543.753 74.1606 589.688 74.0568 635.622 74.2385C645.207 74.2644 650.146 79.4551 650.764 88.8242C650.898 91.0821 650.791 93.366 650.791 95.6239C650.791 374.439 650.791 653.255 650.791 932.07C650.791 950.601 647.22 954.001 627.864 954.001C425.95 954.001 224.063 954.001 22.1485 954.001C3.30214 954.001 0.0268467 950.809 0 932.512C0 792.78 0 653.047 0 513.315L0.0805394 513.263ZM135.71 495.226C133.884 490.736 130.394 488.893 125.508 488.919C107.414 488.971 89.2921 488.711 71.1974 489.023C60.8883 489.205 53.3981 496.394 53.1833 506.282C52.8611 522.814 52.7806 539.346 53.2102 555.852C53.4786 566.234 61.7206 574.149 72.5398 574.409C89.2921 574.824 106.071 574.876 122.824 574.383C133.911 574.046 139.495 568.128 141.858 557.825C144.569 545.938 143.039 533.974 143.603 522.035C151.254 514.924 158.932 507.839 166.557 500.702C175.014 492.786 176.49 485.493 170.826 480.095C165.429 474.93 158.261 476.28 150.019 483.521C145.402 487.57 141.831 492.89 135.683 495.226H135.71ZM143.442 626.886C151.362 619.516 159.335 612.171 167.201 604.748C174.987 597.43 176.383 589.955 171.04 584.687C165.429 579.158 159.55 579.937 151.066 587.334C145.375 592.317 139.683 597.274 134.019 602.257C113.186 597.481 92.0573 600.258 71.0901 600.181C60.9152 600.155 53.4249 608.797 53.2102 618.971C52.8611 635.14 52.9148 651.334 53.1833 667.503C53.3444 677.936 60.7809 685.255 71.5196 685.437C88.5941 685.722 105.669 685.671 122.716 685.463C133.294 685.333 139.657 679.442 141.912 669.398C145.08 655.279 142.932 641.057 143.442 626.886ZM312.818 448.173C391.935 448.173 471.025 447.965 550.143 448.354C565.284 448.432 571.62 438.155 571.915 429.279C572.264 418.586 563.056 411.111 550.223 411.111C391.344 411.059 232.466 411.111 73.5868 411.033C68.7007 411.033 64.2978 411.812 60.4588 414.849C53.4249 420.429 51.1161 427.721 54.0961 435.741C57.3714 444.591 64.5395 448.276 74.5264 448.25C153.966 448.069 233.405 448.147 312.845 448.147L312.818 448.173ZM312.71 726.235C233.888 726.235 155.067 726.235 76.2715 726.235C71.2243 726.235 66.0966 725.872 61.7743 729.038C54.3646 734.437 51.1967 741.21 54.2303 750.268C57.5593 760.182 64.7274 763.426 74.956 763.426C232.6 763.323 390.217 763.219 547.861 763.634C560.774 763.66 571.244 755.121 571.942 745.077C572.747 733.321 563.485 726.261 548.156 726.261C469.683 726.261 391.183 726.261 312.71 726.261V726.235ZM313.355 825.455C263.715 825.455 214.102 825.455 164.463 825.455C133.938 825.455 103.44 825.325 72.9156 825.532C57.2909 825.636 48.6999 839.002 55.3579 852.524C59.546 861.036 67.251 862.672 76.3252 862.646C233.271 862.516 390.217 862.542 547.163 862.542C549.498 862.542 551.914 862.801 554.196 862.438C562.089 861.166 567.835 856.91 570.304 849.565C574.868 836.07 566.251 825.481 550.814 825.481C471.67 825.429 392.526 825.481 313.382 825.455H313.355ZM376.23 662.131C406.405 662.131 436.581 662.131 466.73 662.131C494.892 662.131 523.054 662.079 551.216 662.131C560.398 662.131 566.143 657.304 570.197 650.037C574.331 642.614 571.459 635.97 566.438 630.416C561.338 624.784 554.277 623.175 546.465 623.201C432.822 623.331 319.18 623.279 205.538 623.279C201.86 623.279 198.29 623.435 194.665 624.629C180.813 629.222 175.738 642.614 183.927 654.137C188.518 660.626 195.524 662.183 203.283 662.157C260.95 662.079 318.59 662.105 376.256 662.105L376.23 662.131ZM376.069 512.329C319.422 512.329 262.775 512.329 206.129 512.329C203.444 512.329 200.733 512.147 198.102 512.407C187.605 513.497 180.329 521.075 179.953 531.067C179.604 540.099 186.558 547.366 196.733 549.598C202.37 550.818 207.928 551.155 213.646 551.155C294.428 551.129 375.209 551.155 455.991 551.155C485.147 551.155 514.302 551.233 543.485 551.103C551.539 551.077 559.995 550.636 565.902 544.563C571.029 539.268 574.385 532.832 570.492 525.124C566.304 516.897 560.049 512.251 550.089 512.251C492.1 512.381 434.111 512.303 376.122 512.303L376.069 512.329Z" fill="#63BCE7" fill-opacity="0.75"/>
<path d="M507.704 176.102C507.704 183.239 507.704 190.35 507.704 197.487C507.704 205.351 504.106 209.53 495.489 209.296C486.119 209.037 476.723 209.4 467.326 209.218C460.319 209.089 457.178 212.67 453.661 218.302C442.493 236.08 445.285 250.121 463.138 261.644C465.877 263.409 467.89 266.186 470.28 268.47C475.783 273.764 475.971 279.266 470.548 284.612C459.729 295.227 448.802 305.764 437.849 316.223C432.372 321.466 426.68 321.518 421.123 316.223C414.197 309.631 407.27 303.039 400.505 296.291C397.525 293.307 394.142 290.867 389.901 292.372C381.122 295.487 372.477 298.991 363.967 302.728C360.477 304.259 360.503 307.996 360.503 311.292C360.503 320.039 360.611 328.785 360.45 337.531C360.208 349.106 357.335 352.065 345.603 352.221C331.858 352.402 318.112 352.402 304.367 352.221C293.709 352.065 290.648 349.002 290.541 338.855C290.434 330.757 290.541 322.66 290.514 314.562C290.514 312.616 290.97 310.488 290.299 308.775C285.628 296.629 271.802 298.965 262.996 293.125C258.352 290.037 253.546 292.502 249.653 296.473C243.21 303.065 236.364 309.294 229.787 315.782C223.934 321.544 218.323 321.544 212.444 315.782C201.839 305.401 191.208 295.046 180.416 284.872C174.295 279.11 174.536 273.764 180.389 268.158C187.289 261.54 193.973 254.714 201.061 248.278C205.679 244.099 206.699 239.791 203.504 234.471C202.323 232.524 200.846 230.5 200.524 228.346C197.812 210.75 186.107 208.31 170.053 208.985C141.434 210.205 143.206 211.087 143.314 183.628C143.367 173.585 143.421 163.541 143.314 153.497C143.206 145.737 147.045 142.285 154.992 142.415C164.71 142.57 174.429 142.337 184.147 142.467C190.295 142.544 193.839 139.923 196.255 134.343C207.048 109.48 207.182 109.532 187.476 90.5082C185.57 88.6656 183.664 86.8748 181.812 85.0062C173.624 76.8049 173.597 73.6905 181.866 65.5931C192.014 55.679 202.296 45.9465 212.417 36.0065C218.27 30.2448 223.854 30.141 229.706 35.9286C236.257 42.4169 243.183 48.5938 249.546 55.2378C254.378 60.2727 259.023 60.7139 265.573 57.911C290.353 47.348 290.46 47.5556 290.46 21.0055C290.46 17.7613 290.568 14.5172 290.46 11.273C290.219 3.48707 294.192 0.0352878 302.085 0.0871942C317.173 0.165054 332.261 0.37268 347.349 0.00933523C356.423 -0.224244 360.315 3.92827 360.396 12.1554C360.503 21.5505 360.584 30.9456 360.396 40.3406C360.289 45.9725 362.571 49.606 368.262 51.2151C370.839 51.9417 373.739 52.3829 375.779 53.8363C389.82 63.8802 399.243 57.911 409.499 47.0366C429.419 25.9366 428.775 26.3519 449.581 46.8809C455.433 52.6684 461.447 58.3262 467.353 64.0878C476.857 73.3272 476.911 76.753 467.702 85.7588C462.279 91.0533 456.802 96.2958 451.353 101.59C449.93 102.966 448.077 104.186 447.299 105.847C441.634 118.019 453.366 126.038 455.487 136.419C456.561 141.662 461.689 142.493 466.763 142.441C476.481 142.337 486.2 142.493 495.918 142.415C503.918 142.337 507.57 146.334 507.65 153.782C507.731 161.231 507.65 168.679 507.65 176.154L507.704 176.102ZM427.486 176.569C427.701 122.041 381.873 77.1164 325.737 76.8568C269.681 76.5973 223.693 120.744 222.78 175.687C221.894 228.605 268.876 274.465 324.341 274.828C380.746 275.191 427.271 230.863 427.486 176.569Z" fill="#49789A"/>
<path d="M312.817 448.173C233.377 448.173 153.938 448.095 74.4986 448.276C64.5116 448.276 57.3704 444.617 54.0683 435.767C51.1151 427.773 53.424 420.455 60.4309 414.875C64.27 411.838 68.6997 411.06 73.559 411.06C232.438 411.111 391.317 411.06 550.195 411.137C563.028 411.137 572.236 418.612 571.887 429.305C571.592 438.181 565.256 448.458 550.115 448.38C470.998 447.965 391.907 448.199 312.79 448.199L312.817 448.173Z" fill="white"/>
<path d="M312.702 726.233C391.175 726.233 469.674 726.233 548.147 726.233C563.477 726.233 572.739 733.292 571.933 745.049C571.235 755.093 560.765 763.631 547.852 763.605C390.208 763.19 232.591 763.294 74.9473 763.398C64.7187 763.398 57.5506 760.128 54.2216 750.239C51.1879 741.182 54.3558 734.408 61.7655 729.01C66.0879 725.869 71.2156 726.207 76.2628 726.207C155.085 726.207 233.907 726.207 312.702 726.207V726.233Z" fill="white"/>
<path d="M313.353 825.479C392.497 825.479 471.641 825.453 550.785 825.504C566.248 825.504 574.866 836.093 570.275 849.589C567.779 856.934 562.06 861.19 554.167 862.462C551.885 862.825 549.469 862.566 547.134 862.566C390.188 862.566 233.242 862.54 76.2963 862.669C67.2221 862.669 59.5171 861.034 55.329 852.548C48.671 839.026 57.2619 825.66 72.8867 825.556C103.411 825.349 133.909 825.479 164.434 825.479C214.074 825.479 263.686 825.479 313.326 825.479H313.353Z" fill="white"/>
<path d="M376.228 662.129C318.561 662.129 260.921 662.104 203.254 662.181C195.496 662.181 188.489 660.65 183.898 654.162C175.736 642.639 180.81 629.247 194.637 624.653C198.234 623.459 201.831 623.303 205.509 623.303C319.152 623.303 432.794 623.355 546.436 623.226C554.248 623.226 561.309 624.835 566.41 630.441C571.43 635.995 574.302 642.639 570.168 650.061C566.114 657.328 560.369 662.181 551.187 662.155C523.025 662.103 494.863 662.155 466.701 662.155C436.525 662.155 406.35 662.155 376.201 662.155L376.228 662.129Z" fill="white"/>
<path d="M376.068 512.327C434.057 512.327 492.046 512.405 550.035 512.275C560.022 512.275 566.277 516.895 570.438 525.148C574.358 532.856 571.002 539.293 565.847 544.587C559.941 550.66 551.484 551.075 543.43 551.127C514.275 551.257 485.119 551.179 455.937 551.179C375.155 551.179 294.374 551.179 213.592 551.179C207.9 551.179 202.316 550.842 196.678 549.622C186.504 547.39 179.55 540.123 179.899 531.091C180.275 521.099 187.577 513.521 198.048 512.431C200.705 512.146 203.417 512.353 206.075 512.353C262.721 512.353 319.368 512.353 376.014 512.353L376.068 512.327Z" fill="white"/>
<path d="M143.446 626.885C142.936 641.055 145.11 655.278 141.915 669.396C139.66 679.44 133.271 685.332 122.72 685.461C105.645 685.669 88.5709 685.721 71.5233 685.435C60.7846 685.254 53.3481 677.935 53.187 667.502C52.9185 651.333 52.8648 635.138 53.2138 618.969C53.4286 608.796 60.9188 600.153 71.0937 600.179C92.061 600.257 113.216 597.48 134.022 602.255C122.774 613.519 111.203 624.445 98.1552 634.437C95.1215 628.857 92.7859 623.822 89.779 619.203C85.8057 613.104 79.7921 611.391 73.322 614.92C67.3352 618.217 65.5365 623.563 68.6238 629.895C73.0535 638.953 77.2148 648.167 82.0472 657.017C88.2488 668.358 96.3833 669.37 106.048 660.624C118.478 649.36 130.962 638.149 143.446 626.911V626.885Z" fill="white"/>
<path d="M143.622 522.057C143.058 533.97 144.589 545.96 141.877 557.847C139.515 568.15 133.93 574.068 122.843 574.405C106.09 574.898 89.3112 574.846 72.5589 574.431C61.7397 574.171 53.4977 566.256 53.2293 555.874C52.7997 539.368 52.8803 522.81 53.2024 506.304C53.3903 496.416 60.9074 489.201 71.2166 489.045C89.3112 488.733 107.406 488.993 125.527 488.941C130.414 488.941 133.904 490.758 135.729 495.248C127.783 503.06 119.916 510.949 111.836 518.632C99.3251 530.518 99.2445 530.492 90.3314 515.803C86.6534 509.756 81.6331 506.563 74.5455 509.833C67.2701 513.181 65.5251 518.969 68.9346 526.002C73.1764 534.774 77.4181 543.573 81.9552 552.215C88.2105 564.179 95.5128 565.373 105.5 556.368C118.198 544.922 130.924 533.503 143.649 522.083L143.622 522.057Z" fill="white"/>
<path d="M143.439 626.882C130.982 638.12 118.471 649.332 106.041 660.595C96.3763 669.368 88.2418 668.355 82.0402 656.988C77.2078 648.138 73.0465 638.924 68.6168 629.867C65.5026 623.508 67.3013 618.162 73.315 614.892C79.785 611.362 85.7987 613.075 89.772 619.174C92.7789 623.794 95.1145 628.829 98.1482 634.409C111.196 624.417 122.767 613.516 134.015 602.227C139.707 597.244 145.398 592.286 151.09 587.303C159.547 579.907 165.453 579.128 171.064 584.656C176.406 589.925 175.01 597.399 167.225 604.718C159.332 612.141 151.385 619.485 143.465 626.856L143.439 626.882Z" fill="#F6A6A7"/>
<path d="M143.633 522.059C130.907 533.478 118.182 544.898 105.484 556.343C95.4966 565.349 88.1943 564.155 81.939 552.19C77.4288 543.548 73.187 534.776 68.9184 525.978C65.5089 518.944 67.2808 513.157 74.5294 509.809C81.6169 506.539 86.6372 509.731 90.3152 515.778C99.2283 530.468 99.3089 530.52 111.819 518.607C119.9 510.925 127.766 503.035 135.713 495.223C141.861 492.913 145.431 487.593 150.049 483.518C158.291 476.277 165.432 474.928 170.855 480.092C176.52 485.517 175.043 492.784 166.587 500.699C158.962 507.836 151.284 514.922 143.633 522.033V522.059Z" fill="#F6A6A7"/>
<path d="M239.559 175.584C239.72 129.802 278.272 92.3778 325.12 92.4817C372.665 92.5855 411.458 130.244 411.351 176.181C411.244 222.014 372.021 259.517 324.502 259.205C277.386 258.894 239.398 221.495 239.559 175.584ZM381.283 176.233C381.417 146.101 356.342 121.497 325.388 121.471C294.675 121.42 269.064 146.153 268.903 175.999C268.741 205.041 294.326 229.904 324.636 230.164C355.752 230.423 381.149 206.261 381.283 176.233Z" fill="#49789A"/>
<path d="M365.147 175.456C365.308 197.101 347.509 214.542 325.226 214.568C303.802 214.568 285.546 197.179 285.09 176.287C284.634 155.446 303.668 136.916 325.333 137.071C347.133 137.227 364.986 154.434 365.147 175.456Z" fill="#49789A"/>
</svg>
