<svg width="767" height="619" viewBox="0 0 767 619" fill="none" xmlns="http://www.w3.org/2000/svg">
<path d="M383.199 618.023C271.485 618.023 159.771 618.023 48.057 618.023C17.6401 618.023 0 600.527 0 570.296C0 396.017 0 221.738 0 47.4594C0 17.6814 17.702 0 47.5418 0C271.238 0 494.913 0 718.609 0C748.511 0 766.274 17.6195 766.274 47.3151C766.274 221.862 766.274 396.388 766.274 570.935C766.274 600.136 748.366 618.002 719.124 618.023C607.142 618.023 495.181 618.023 383.199 618.023ZM383.529 98.8754C266.642 98.8754 149.756 98.9373 32.8692 98.69C25.9862 98.69 24.5643 100.4 24.5643 107.098C24.7704 261.078 24.7292 415.058 24.7292 569.039C24.7292 587.009 30.9321 593.294 48.6958 593.294C271.67 593.294 494.624 593.294 717.599 593.294C735.342 593.294 741.566 587.009 741.566 569.039C741.566 415.058 741.525 261.078 741.731 107.098C741.731 100.421 740.329 98.6694 733.426 98.69C616.787 98.9373 500.168 98.8754 383.529 98.8754ZM382.375 74.1669C499.261 74.1669 616.148 74.1257 733.014 74.3111C739.505 74.3111 742.534 73.1571 741.669 65.965C741.03 60.6277 741.545 55.1666 741.545 49.7674C741.545 30.6023 735.734 24.7292 716.775 24.7292C494.336 24.7292 271.897 24.7292 49.4789 24.7292C47.6861 24.7292 45.8726 24.6879 44.0797 24.7292C32.4364 25.1413 25.0383 32.6013 24.7704 44.3682C24.6261 50.2826 24.7498 56.2176 24.7498 62.132C24.7498 70.1553 28.6309 74.1669 36.3931 74.1669C151.734 74.1669 267.075 74.1669 382.395 74.1669H382.375Z" fill="#4A80AA"/>
<path d="M383.523 98.8749C500.162 98.8749 616.781 98.9367 733.42 98.6895C740.303 98.6895 741.725 100.42 741.725 107.097C741.519 261.078 741.56 415.058 741.56 569.038C741.56 586.987 735.337 593.293 717.593 593.293C494.619 593.293 271.665 593.293 48.6901 593.293C30.9264 593.293 24.7235 587.008 24.7235 569.038C24.7235 415.058 24.7647 261.078 24.5586 107.097C24.5586 100.42 25.9805 98.6895 32.8635 98.6895C149.75 98.9367 266.636 98.8749 383.523 98.8749ZM383.111 506.782C423.275 506.782 463.419 506.824 503.583 506.782C548.899 506.721 580.82 474.841 580.862 429.524C580.924 373.925 580.924 318.305 580.862 262.706C580.82 217.369 548.92 185.468 503.624 185.427C423.316 185.386 342.988 185.386 262.68 185.427C217.405 185.448 185.442 217.41 185.381 262.664C185.319 318.264 185.319 373.884 185.381 429.483C185.422 474.758 217.384 506.721 262.639 506.782C302.803 506.844 342.947 506.782 383.111 506.782Z" fill="#B1E4F9"/>
<path d="M382.377 74.1664C267.036 74.1664 151.695 74.1664 36.375 74.1664C28.6128 74.1664 24.7317 70.1547 24.7317 62.1315C24.7317 56.2171 24.6286 50.2821 24.7523 44.3677C25.0202 32.6008 32.4183 25.1408 44.0616 24.7286C45.8545 24.6668 47.668 24.7286 49.4608 24.7286C271.9 24.7286 494.338 24.7286 716.757 24.7286C735.736 24.7286 741.527 30.6018 741.527 49.7669C741.527 55.1661 741.012 60.6478 741.651 65.9645C742.516 73.1566 739.487 74.3106 732.996 74.3106C616.109 74.1252 499.243 74.1664 382.357 74.1664H382.377ZM55.6225 61.8018C57.4154 61.8018 59.2288 61.8636 61.0217 61.8018C68.9556 61.4721 74.0457 56.7323 74.1488 49.6433C74.2724 42.2657 68.9969 37.3817 60.6302 37.0932C59.0846 37.0314 57.539 37.0932 56.014 37.0932C42.8046 37.0932 36.9726 40.9675 37.1168 49.6639C37.2405 58.1748 42.8252 61.843 55.6431 61.843L55.6225 61.8018ZM105.328 61.8224C117.899 61.8224 123.628 57.9069 123.566 49.3548C123.504 40.8232 117.878 37.0726 105.143 37.0726C92.2423 37.0726 86.7194 40.6584 86.5133 49.1487C86.3073 57.8657 92.2011 61.8224 105.308 61.8224H105.328ZM154.622 61.8224C155.137 61.8224 155.652 61.8224 156.167 61.8224C167.398 61.8018 172.983 57.7215 173.004 49.499C173.045 41.2354 167.46 37.0932 156.27 37.0726C155.755 37.0726 155.24 37.0726 154.725 37.0726C141.618 37.0726 135.724 41.0499 135.951 49.7669C136.178 58.2573 141.68 61.8224 154.601 61.8224H154.622Z" fill="#DAF1F4"/>
<path d="M383.117 506.783C342.952 506.783 302.809 506.824 262.644 506.783C217.39 506.721 185.448 474.759 185.386 429.484C185.324 373.884 185.324 318.264 185.386 262.665C185.427 217.431 217.41 185.469 262.685 185.427C342.993 185.386 423.322 185.386 503.63 185.427C548.926 185.448 580.826 217.369 580.867 262.706C580.929 318.305 580.929 373.925 580.867 429.525C580.826 474.841 548.905 506.721 503.589 506.783C463.424 506.845 423.281 506.783 383.117 506.783ZM383.158 482.054C423.817 482.054 464.475 482.095 505.134 482.054C534.624 482.012 556.118 460.416 556.159 430.782C556.221 374.42 556.221 318.058 556.159 261.717C556.138 231.609 534.727 210.198 504.66 210.177C423.611 210.136 342.54 210.136 261.49 210.177C231.444 210.177 210.136 231.609 210.115 261.779C210.074 317.873 210.074 373.987 210.115 430.081C210.115 460.725 231.382 482.033 261.944 482.054C302.335 482.095 342.746 482.054 383.137 482.054H383.158Z" fill="#4A80AA"/>
<path d="M55.6187 61.8238C42.8008 61.8238 37.2367 58.1556 37.0925 49.6446C36.9482 40.9482 42.7802 37.074 55.9897 37.074C57.5352 37.074 59.0808 37.0328 60.6058 37.074C68.9725 37.3625 74.2274 42.2671 74.1244 49.624C74.0213 56.7131 68.9313 61.4528 60.9973 61.7825C59.2045 61.865 57.4116 61.7825 55.5981 61.7825L55.6187 61.8238Z" fill="#4A80AA"/>
<path d="M105.327 61.824C92.2203 61.824 86.3265 57.8467 86.5326 49.1503C86.7386 40.6599 92.2615 37.0742 105.162 37.0742C117.877 37.0742 123.523 40.8248 123.585 49.3564C123.647 57.9085 117.918 61.824 105.347 61.824H105.327Z" fill="#4A80AA"/>
<path d="M154.617 61.824C141.696 61.824 136.173 58.2589 135.967 49.7685C135.741 41.0515 141.634 37.0742 154.741 37.0742C155.256 37.0742 155.771 37.0742 156.286 37.0742C167.476 37.0948 173.061 41.237 173.02 49.5006C172.979 57.7231 167.414 61.8034 156.183 61.824C155.668 61.824 155.153 61.824 154.638 61.824H154.617Z" fill="#4A80AA"/>
<path d="M383.154 482.053C342.763 482.053 302.352 482.074 261.961 482.053C231.4 482.032 210.132 460.703 210.132 430.081C210.091 373.987 210.091 317.872 210.132 261.778C210.153 231.608 231.461 210.176 261.507 210.176C342.557 210.135 423.628 210.135 504.677 210.176C534.723 210.176 556.135 231.608 556.176 261.716C556.238 318.078 556.238 374.44 556.176 430.781C556.135 460.415 534.641 482.012 505.151 482.053C464.493 482.115 423.834 482.053 383.175 482.053H383.154ZM284.258 345.527C284.258 373.327 284.238 401.147 284.258 428.947C284.258 443.475 292.357 448.545 305.381 442.054C360.857 414.377 416.271 386.598 471.767 358.943C477.393 356.14 482.071 352.905 481.968 345.878C481.865 339.263 477.496 336.089 472.097 333.389C416.374 305.631 360.733 277.728 305.01 249.949C292.522 243.726 284.279 248.898 284.258 262.87C284.217 290.423 284.258 317.975 284.258 345.527Z" fill="white"/>
<path d="M280.765 345.686C280.765 317.152 280.722 288.617 280.765 260.082C280.786 245.633 289.323 240.255 302.257 246.701C359.945 275.47 417.591 304.368 475.301 333.116C480.892 335.912 485.417 339.198 485.524 346.049C485.63 353.327 480.786 356.678 474.959 359.58C417.484 388.222 360.095 416.97 302.641 445.654C289.174 452.377 280.786 447.127 280.765 432.08C280.722 403.289 280.765 374.477 280.765 345.686ZM306.696 415.049C352.518 392.106 397.678 369.504 444.162 346.241C397.38 322.85 352.305 300.313 306.696 277.498V415.049Z" fill="#4A80AA"/>
<path d="M306.695 415.048V277.496C352.304 300.311 397.379 322.849 444.161 346.24C397.678 369.503 352.517 392.105 306.695 415.048Z" fill="#4A80AA"/>
</svg>
