<svg width="248" height="224" viewBox="0 0 248 224" fill="none" xmlns="http://www.w3.org/2000/svg">
<path d="M48.7491 122.682C39.8317 115.023 30.9142 107.37 21.9903 99.7174C14.6602 93.4326 7.33011 87.1542 0 80.8759C0 80.3919 0 79.908 0 79.4241C3.16821 76.8043 5.52984 73.449 8.19475 70.3776C28.1525 47.3678 48.0587 24.3192 67.9519 1.26422C68.9843 0.070496 69.7264 -0.60057 71.2427 0.73511C78.7277 7.34253 86.2965 13.8596 93.8331 20.409C90.9746 21.6801 88.1032 22.9384 85.2512 24.2289C78.2954 27.3777 71.3395 30.5266 64.3901 33.6948C58.4602 36.3984 52.5174 39.0633 46.6326 41.8573C43.4193 43.3801 42.7676 45.1287 44.1807 48.2711C49.6524 60.4406 55.1952 72.5779 60.7057 84.7345C62.8931 89.561 65.0612 94.4004 67.2421 99.2334C65.3902 99.2721 63.5448 99.2786 61.6929 99.3496C54.195 99.6528 48.9104 105.067 48.8201 112.539C48.7814 115.92 48.7684 119.301 48.7491 122.676V122.682Z" fill="#016694"/>
<path d="M247.7 149.563C246.7 151.118 246.687 152.99 246.042 154.674C242.364 164.204 235.627 170.399 225.884 173.373C223.045 174.135 220.167 174.496 217.225 174.238C217.418 174.096 217.592 173.857 217.799 173.831C231.853 172.096 243.945 157.997 242.435 142.349C241.538 133.045 237.473 125.831 229.981 120.314C226.116 117.468 221.625 116.365 217.25 114.868C231.278 114.081 244.467 124.676 247.21 138.936C247.281 139.31 247.184 139.755 247.7 139.897V149.57V149.563Z" fill="#24B437"/>
<path d="M158.205 32.978C165.284 32.978 172.356 32.9651 179.434 32.9909C180.273 32.9909 181.228 32.6618 181.919 33.4942C181.919 40.0049 181.919 46.5155 181.944 53.0261C181.97 58.4592 184.538 61.0079 189.926 61.0208C194.508 61.0273 199.089 61.0337 203.67 61.0402C203.67 80.2043 203.67 99.3619 203.67 118.526C199.45 120.868 196.082 124.159 193.198 127.979C192.152 127.947 191.113 127.895 190.068 127.895C169.975 127.895 149.888 127.895 129.795 127.895C128.111 127.895 126.427 127.895 124.788 127.424C123.033 126.779 121.381 125.901 120.039 124.617C114.27 119.113 108.392 113.719 102.92 107.912C102.946 106.866 102.991 105.821 102.991 104.776C102.991 82.0626 102.991 59.3561 102.991 36.6431C102.991 34.2427 104.163 33.0425 106.508 33.0425C123.742 33.0232 140.977 33.0038 158.212 32.978H158.205ZM156.767 104.563C144.765 104.563 132.769 104.576 120.768 104.55C118.935 104.55 117.361 104.86 116.735 106.84C115.89 109.499 117.599 111.357 120.91 111.357C144.591 111.364 168.265 111.357 191.946 111.357C194.572 111.357 196.347 110.002 196.385 108.008C196.424 105.95 194.598 104.563 191.804 104.563C180.125 104.563 168.446 104.563 156.773 104.563H156.767ZM156.566 70.6868C144.642 70.6868 132.718 70.6868 120.787 70.6868C117.832 70.6868 116.548 71.7643 116.586 74.126C116.625 76.1585 118.225 77.4749 120.729 77.4749C144.423 77.4749 168.11 77.4813 191.804 77.4749C194.611 77.4749 196.476 76.0166 196.372 73.9582C196.276 71.9708 194.52 70.6868 191.862 70.6868C180.099 70.6868 168.33 70.6868 156.566 70.6868ZM156.605 87.6247C144.681 87.6247 132.75 87.6247 120.826 87.6247C117.851 87.6247 116.567 88.683 116.593 91.0317C116.612 93.1417 118.232 94.4128 120.948 94.4128C144.558 94.4128 168.168 94.4128 191.778 94.4128C194.611 94.4128 196.45 92.9868 196.379 90.922C196.308 88.9282 194.546 87.6183 191.894 87.6183C180.131 87.6183 168.362 87.6183 156.599 87.6183L156.605 87.6247ZM143.139 53.7553C135.48 53.7553 127.827 53.7553 120.168 53.7553C118.077 53.7553 116.78 54.7102 116.619 56.8589C116.451 59.0722 117.909 59.9884 119.755 60.5046C120.129 60.6079 120.555 60.5498 120.961 60.5498C135.789 60.5498 150.624 60.5627 165.452 60.5433C168.162 60.5433 169.33 59.4464 169.362 57.0525C169.388 54.678 168.304 53.7617 165.394 53.7553C157.98 53.7488 150.566 53.7553 143.145 53.7553H143.139Z" fill="#E9F5FE"/>
<path d="M96.2921 22.3646C103.648 19.519 110.688 15.9636 117.869 12.7374C125.722 9.2078 133.543 5.60727 141.363 2.01965C142.647 1.42602 143.712 1.04531 144.493 2.78751C148.558 11.8921 152.687 20.9708 156.791 30.0625C139.647 30.0625 122.496 30.0754 105.352 30.0754C101.035 30.0754 99.6668 31.4691 99.6668 35.8633C99.6539 58.8022 99.6475 81.7475 99.6346 104.686C94.8919 99.5049 88.8717 98.537 82.2836 99.3952C78.4185 99.3436 74.5535 99.2855 70.6884 99.2339C68.0106 93.2975 65.3521 87.3612 62.6614 81.4313C57.5703 70.2361 52.4793 59.0345 47.3366 47.8651C46.5494 46.1616 46.6268 45.2131 48.5819 44.342C59.3061 39.5671 69.9915 34.7083 80.6318 29.7592C85.8648 27.3266 91.2785 25.2553 96.2921 22.3646Z" fill="#60B6FE"/>
<path d="M193.189 127.986C196.074 124.159 199.442 120.875 203.662 118.533C205.765 117.675 207.875 116.816 209.979 115.958C212.373 115.39 214.779 114.958 217.244 114.861C221.619 116.358 226.11 117.462 229.975 120.307C237.467 125.824 241.532 133.038 242.429 142.343C243.939 157.984 231.847 172.089 217.793 173.825C217.586 173.851 217.412 174.096 217.219 174.231C217.051 174.296 216.883 174.36 216.709 174.425C216.315 174.36 215.915 174.276 215.515 174.244C199.932 172.85 188.04 159.758 188.221 144.169C188.292 138.297 190.189 132.974 193.183 127.986H193.189ZM236.667 134.096C236.699 132.412 235.976 131.315 234.589 130.728C232.976 130.044 231.627 130.593 230.44 131.78C224.813 137.419 219.116 142.994 213.579 148.718C212.134 150.215 211.314 150.15 210.043 148.647C208.701 147.053 207.14 145.64 205.63 144.188C203.739 142.369 201.552 142.227 200.113 143.769C198.745 145.227 198.926 147.337 200.674 149.118C203.378 151.873 206.107 154.609 208.869 157.306C210.973 159.358 212.657 159.41 214.728 157.358C221.587 150.563 228.401 143.717 235.228 136.884C236.034 136.071 236.75 135.206 236.673 134.096H236.667Z" fill="#26C63C"/>
<path d="M99.625 104.686C99.6379 81.747 99.6444 58.8017 99.6573 35.8629C99.6573 31.4687 101.032 30.0749 105.342 30.0749C122.486 30.0749 139.637 30.0685 156.782 30.062C157.492 30.9202 157.879 31.9333 158.195 32.9786C140.96 32.9979 123.725 33.0173 106.491 33.0431C104.146 33.0431 102.974 34.2433 102.974 36.6436C102.974 59.3566 102.974 82.0632 102.974 104.776C102.974 105.822 102.929 106.867 102.903 107.912C101.812 106.835 100.715 105.763 99.625 104.686Z" fill="#5AA7E6"/>
<path d="M203.668 61.0473C199.086 61.0473 194.505 61.0344 189.924 61.028C184.536 61.0151 181.968 58.4663 181.942 53.0333C181.916 46.5226 181.922 40.012 181.916 33.5014C182.961 33.4691 183.432 34.3273 184.039 34.9274C191.892 42.7543 199.725 50.6007 207.565 58.4405C208.294 59.1697 209.197 59.802 209.114 61.028C207.3 61.0344 205.487 61.0409 203.674 61.0473H203.668Z" fill="#BFC8D0"/>
<path d="M96.2934 22.3638C91.2733 25.2546 85.866 27.3194 80.633 29.7584C69.9928 34.7076 59.3073 39.5663 48.5832 44.3412C46.628 45.2123 46.5506 46.1609 47.3378 47.8643C52.4805 59.0402 57.5716 70.2353 62.6626 81.4305C65.3534 87.354 68.0183 93.2968 70.6896 99.2331C69.5411 99.2331 68.399 99.2331 67.2504 99.2331C65.0695 94.4002 62.9014 89.5608 60.714 84.7342C55.2035 72.5776 49.6607 60.4404 44.189 48.2708C42.7759 45.122 43.4276 43.3798 46.6409 41.857C52.5257 39.063 58.4685 36.3981 64.3984 33.6945C71.3478 30.5263 78.3036 27.371 85.2595 24.2286C88.1115 22.9381 90.9765 21.6798 93.8414 20.4087C94.6609 21.0604 95.4804 21.7121 96.2998 22.3703L96.2934 22.3638Z" fill="#025D87"/>
<path d="M203.667 61.0472C205.48 61.0407 207.293 61.0343 209.106 61.0278C210.603 61.5311 209.926 62.7958 209.926 63.6992C209.977 81.1211 209.971 98.5366 209.977 115.958C207.874 116.817 205.764 117.675 203.66 118.533C203.66 99.3689 203.66 80.2113 203.66 61.0472H203.667Z" fill="#D2DCE5"/>
<path d="M67.243 99.2329C68.3916 99.2329 69.5337 99.2329 70.6822 99.2329C74.5473 99.2845 78.4124 99.3426 82.2775 99.3942C84.5746 100.162 86.7039 101.272 88.5042 102.885C91.1885 105.298 93.8276 107.763 96.4021 110.293C100.596 114.403 104.778 118.526 108.856 122.746C113.308 127.353 118.592 128.863 124.78 127.431C126.419 127.908 128.104 127.902 129.788 127.902C149.881 127.902 169.968 127.902 190.061 127.902C191.106 127.902 192.145 127.953 193.191 127.986C190.197 132.967 188.299 138.29 188.228 144.169C188.048 159.758 199.94 172.85 215.523 174.244C215.923 174.283 216.316 174.367 216.717 174.425C216.723 185.71 216.484 197.002 216.839 208.281C217.039 214.56 211.664 221.393 206.56 222.883C205.992 223.051 205.205 223.045 205.134 223.935C203.121 223.948 201.108 223.961 199.095 223.961C154.591 223.961 110.088 223.961 65.5847 223.961C57.2093 223.961 51.0084 219.192 49.1178 211.417C48.75 209.901 48.8339 208.372 48.8339 206.849C48.821 179.845 48.8274 152.834 48.821 125.83C48.821 124.785 48.7758 123.733 48.75 122.688C48.7758 119.307 48.7823 115.926 48.821 112.551C48.9113 105.079 54.196 99.6588 61.6938 99.362C63.5393 99.291 65.3911 99.2845 67.243 99.2458V99.2329ZM136.956 205.674C158.476 205.674 179.995 205.674 201.521 205.674C202.243 205.674 202.985 205.745 203.695 205.642C205.592 205.371 206.844 204.268 207.012 202.364C207.18 200.441 206.16 199.215 204.244 198.68C203.276 198.409 202.334 198.447 201.372 198.447C158.573 198.441 115.773 198.447 72.9729 198.447C72.2502 198.447 71.5017 198.37 70.7984 198.506C67.7786 199.067 66.5268 202.229 68.3916 204.506C69.3853 205.72 70.7597 205.687 72.147 205.687C93.7501 205.681 115.347 205.687 136.95 205.687L136.956 205.674ZM88.0267 174.721C82.542 174.721 77.0638 174.702 71.5791 174.728C69.1465 174.741 67.514 176.096 67.3334 178.148C67.1914 179.793 69.282 181.916 71.3533 181.922C82.3162 181.974 93.2791 181.968 104.242 181.922C105.694 181.916 107.1 181.49 107.901 180.006C109.327 177.361 107.584 174.773 104.223 174.741C98.8219 174.689 93.4211 174.728 88.0203 174.728L88.0267 174.721Z" fill="#FEB957"/>
<path d="M205.131 223.929C205.209 223.039 205.996 223.045 206.557 222.877C211.661 221.387 217.036 214.553 216.836 208.275C216.475 197.003 216.72 185.704 216.714 174.419C216.882 174.354 217.049 174.29 217.224 174.225C220.166 174.483 223.044 174.122 225.883 173.36C225.883 184.478 225.889 195.596 225.883 206.707C225.883 217.315 219.159 224 208.506 224C207.377 224 206.254 223.942 205.125 223.916L205.131 223.929Z" fill="#E6A84F"/>
<path d="M156.764 104.563C168.443 104.563 180.122 104.563 191.795 104.563C194.589 104.563 196.415 105.951 196.376 108.009C196.338 110.003 194.563 111.358 191.937 111.358C168.256 111.358 144.582 111.358 120.901 111.358C117.591 111.358 115.881 109.5 116.726 106.841C117.358 104.86 118.926 104.544 120.759 104.55C132.761 104.576 144.756 104.563 156.758 104.563H156.764Z" fill="#BDC6CE"/>
<path d="M156.567 70.6869C168.33 70.6869 180.099 70.6869 191.862 70.6869C194.527 70.6869 196.282 71.9709 196.373 73.9583C196.469 76.0167 194.611 77.475 191.804 77.475C168.11 77.475 144.423 77.475 120.729 77.475C118.226 77.475 116.626 76.1522 116.587 74.1261C116.548 71.7709 117.832 70.6933 120.787 70.6869C132.712 70.674 144.636 70.6869 156.567 70.6869Z" fill="#BDC6CE"/>
<path d="M156.604 87.6255C168.367 87.6255 180.136 87.6255 191.899 87.6255C194.545 87.6255 196.313 88.9354 196.384 90.9292C196.461 92.994 194.616 94.42 191.783 94.42C168.173 94.42 144.563 94.42 120.954 94.42C118.237 94.42 116.617 93.1489 116.598 91.0389C116.572 88.6902 117.856 87.6319 120.831 87.6319C132.755 87.619 144.686 87.6319 156.61 87.6319L156.604 87.6255Z" fill="#BDC6CE"/>
<path d="M143.137 53.7558C150.551 53.7558 157.965 53.7493 165.386 53.7558C168.296 53.7558 169.38 54.6785 169.354 57.0531C169.328 59.447 168.16 60.5439 165.444 60.5439C150.616 60.5632 135.781 60.5503 120.953 60.5503C120.553 60.5503 120.127 60.6084 119.747 60.5052C117.908 59.989 116.443 59.0663 116.611 56.8595C116.772 54.7108 118.069 53.7558 120.16 53.7558C127.819 53.7558 135.472 53.7558 143.131 53.7558H143.137Z" fill="#BDC6CE"/>
<path d="M124.78 127.431C118.592 128.864 113.308 127.354 108.855 122.747C104.777 118.527 100.59 114.403 96.402 110.293C93.8274 107.764 91.1883 105.299 88.5041 102.886C86.7038 101.272 84.5745 100.163 82.2773 99.3947C88.859 98.5365 94.8856 99.5044 99.6283 104.686C100.719 105.763 101.816 106.835 102.906 107.912C108.378 113.719 114.263 119.114 120.025 124.618C121.373 125.902 123.019 126.786 124.774 127.425L124.78 127.431Z" fill="#E6A84F"/>
<path d="M236.668 134.097C236.752 135.207 236.036 136.078 235.223 136.884C228.396 143.718 221.588 150.564 214.723 157.358C212.651 159.41 210.967 159.359 208.864 157.307C206.102 154.61 203.373 151.874 200.669 149.118C198.92 147.331 198.74 145.228 200.108 143.769C201.553 142.227 203.741 142.375 205.625 144.189C207.135 145.64 208.696 147.054 210.038 148.647C211.309 150.157 212.129 150.222 213.574 148.718C219.111 142.988 224.808 137.42 230.435 131.78C231.616 130.593 232.971 130.051 234.584 130.729C235.971 131.316 236.7 132.406 236.661 134.097H236.668Z" fill="#E6F4FB"/>
<path d="M136.955 205.675C115.352 205.675 93.7551 205.675 72.1519 205.675C70.7646 205.675 69.3902 205.707 68.3965 204.494C66.5317 202.216 67.7835 199.048 70.8033 198.493C71.5067 198.364 72.2487 198.435 72.9778 198.435C115.778 198.435 158.577 198.435 201.377 198.435C202.339 198.435 203.281 198.403 204.249 198.667C206.165 199.203 207.185 200.422 207.017 202.352C206.849 204.255 205.591 205.365 203.7 205.63C202.99 205.733 202.255 205.662 201.526 205.662C180.006 205.662 158.487 205.662 136.961 205.662L136.955 205.675Z" fill="#D09746"/>
<path d="M88.0238 174.722C93.4246 174.722 98.8254 174.683 104.226 174.735C107.588 174.767 109.33 177.355 107.904 180C107.104 181.484 105.697 181.91 104.246 181.917C93.2827 181.968 82.3198 181.975 71.3569 181.917C69.2856 181.904 67.195 179.781 67.3369 178.142C67.5111 176.09 69.1436 174.735 71.5827 174.722C77.0674 174.696 82.5456 174.715 88.0303 174.715L88.0238 174.722Z" fill="#D09746"/>
</svg>
