<svg width="913" height="859" viewBox="0 0 913 859" fill="none" xmlns="http://www.w3.org/2000/svg">
<path d="M746.812 179.344C802.195 179.06 857.618 178.735 913.001 178.451V795.051C900.211 810.846 895.622 832.081 875.118 843.085C850.35 856.403 825.785 859.123 799.312 852.261C768.007 832.771 746.446 807.76 746.528 768.009C746.893 571.774 746.771 375.539 746.771 179.304L746.812 179.344Z" fill="#96C8EF"/>
<path d="M0.0390625 730.166C0.0390625 594.958 0.0390625 459.709 0.0390625 324.5C12.22 324.541 24.401 324.622 36.6225 324.662C38.003 325.109 39.3835 325.515 40.8047 325.962C40.8047 460.399 40.8453 594.836 40.8859 729.314C27.2838 729.598 13.6817 729.882 0.0796657 730.207L0.0390625 730.166Z" fill="#E7A74E"/>
<path d="M0.0406032 730.169C13.6427 729.884 27.2447 729.6 40.8468 729.275L40.4002 731.021C49.1298 750.673 49.5765 773.695 64.6809 790.749C62.0417 813.04 50.5104 832.123 43.8514 858.19C27.9756 813.283 14.0081 773.736 0 734.188C0 732.848 0 731.468 0 730.128L0.0406032 730.169Z" fill="#33556D"/>
<path d="M36.6225 324.665C24.4416 324.624 12.2606 324.543 0.0390625 324.502V279.879C14.5344 261.405 30.6539 246.625 56.8835 255.639C42.1852 276.306 31.9532 298.273 36.6225 324.665Z" fill="#E03F4D"/>
<path d="M746.807 179.344C746.807 375.579 746.928 571.815 746.563 768.05C746.482 807.8 768.002 832.812 799.347 852.301C794.475 857.539 788.019 855.834 782.131 855.834C602.503 855.834 422.874 855.793 243.246 855.712C194.888 836.75 177.672 801.02 177.997 749.738C179.418 512.94 178.728 276.102 178.362 39.3039C178.362 24.3619 181.042 11.4095 190.665 0.0406032C365.624 0 540.583 0 715.583 0C739.742 0 746.522 6.98375 746.604 31.4269C746.725 80.7191 746.766 130.052 746.807 179.344ZM218.64 206.914C218.803 209.837 220.589 210.446 223.107 210.081C244.748 210.081 266.43 210 288.072 210C320.473 210.243 352.915 210.243 385.317 210.852C394.615 211.015 398.594 208.254 398.513 198.306C398.107 159.124 398.147 119.942 398.513 80.7597C398.594 70.9338 394.655 67.8885 385.317 68.0509C354.255 68.66 323.194 68.7412 292.132 68.9848C271.952 68.66 251.773 68.66 231.633 67.8073C221.077 67.3607 217.504 71.2992 217.666 81.7748C218.356 123.474 218.397 165.214 218.681 206.914H218.64ZM211.291 583.021C212.55 583.346 213.809 583.671 215.067 584.036C217.747 584.402 220.427 585.051 223.066 585.051C372.486 585.092 521.946 585.132 671.366 585.092C674.736 585.092 678.147 585.051 681.476 584.686C688.379 583.955 693.048 580.179 693.21 573.155C693.373 566.171 688.866 561.745 682.248 560.608C676.969 559.674 671.488 559.918 666.087 559.918C585.612 559.918 505.136 559.918 424.702 559.918C358.437 559.918 292.173 559.796 225.908 559.999C205.038 560.04 201.709 565.724 211.291 583.102V583.021ZM568.396 647.905C549.029 643.763 529.417 647.215 510.009 646.037C500.508 645.469 499.046 650.828 499.168 658.705C499.452 681.646 498.721 704.628 499.411 727.568C500.02 748.235 490.113 776.901 503.391 787.539C518.292 799.436 545.983 791.356 568.153 790.219C601.122 790.341 634.092 790.097 667.021 790.828C678.634 791.112 682.004 787.011 681.842 775.724C681.273 738.085 681.029 700.364 681.923 662.725C682.248 649.285 676.685 647.336 665.275 647.539C632.996 648.149 600.716 647.824 568.396 647.864V647.905ZM450.525 414.355C377.602 414.355 304.679 414.355 231.715 414.355C226.314 414.355 220.874 414.193 215.555 415.005C208.733 416.061 204.632 420.933 204.429 427.551C204.226 434.251 208.165 439.286 214.905 440.585C220.143 441.6 225.624 441.478 231.024 441.478C376.221 441.519 521.378 441.478 666.575 441.478C671.285 441.478 676.076 441.722 680.745 441.113C688.054 440.098 693.616 436.525 693.819 428.242C694.022 419.999 688.825 415.939 681.436 414.843C676.117 414.071 670.676 414.315 665.275 414.315C593.692 414.315 522.109 414.315 450.525 414.315V414.355ZM509.116 487.116C456.453 487.116 403.791 487.035 351.129 487.198C341.303 487.198 328.838 485.046 328.634 500.312C328.431 515.376 340.45 514.077 350.601 514.077C457.265 514.077 563.971 514.117 670.635 514.077C680.745 514.077 693.251 515.051 693.535 500.8C693.779 486.385 681.476 487.198 671.204 487.157C617.201 487.157 563.158 487.157 509.156 487.157L509.116 487.116ZM373.298 368.758C423.321 368.758 473.344 368.758 523.408 368.758C533.965 368.758 545.861 368.352 545.171 354.222C544.562 341.635 533.193 341.798 523.449 341.798C424.742 341.798 326.036 341.798 227.33 341.798C216.773 341.798 204.795 341.635 204.754 355.481C204.673 369.773 216.935 368.839 227.33 368.799C276.013 368.717 324.696 368.799 373.379 368.799L373.298 368.758ZM509.44 270.783C454.748 270.783 400.096 270.701 345.404 270.864C335.659 270.864 322.219 268.346 321.773 282.679C321.326 296.606 333.994 296.078 344.348 296.078C453.043 296.078 561.697 296.078 670.391 296.078C680.705 296.078 693.292 296.728 692.926 282.639C692.561 267.859 678.999 270.945 669.417 270.904C616.105 270.701 562.752 270.783 509.44 270.783ZM327.579 657.975C361.97 657.975 396.361 657.975 430.711 657.975C440.334 657.975 451.337 658.502 451.094 644.86C450.891 632.719 440.821 632.679 431.726 632.679C362.944 632.679 294.203 632.679 225.421 632.679C215.514 632.679 204.592 632.882 204.998 645.997C205.404 659.396 217.016 657.975 226.396 658.015C260.096 658.056 293.797 658.015 327.538 658.015L327.579 657.975ZM327.416 778.119C293.025 778.119 258.594 778.241 224.203 778.038C214.905 777.998 205.12 778.241 204.876 790.138C204.632 801.791 213.93 803.212 223.513 803.212C292.985 803.09 362.457 803.131 431.97 803.212C441.146 803.212 450.85 803.171 451.175 790.909C451.5 778.485 441.836 778.119 432.619 778.16C397.538 778.16 362.457 778.16 327.376 778.16L327.416 778.119ZM328.634 705.399C294.934 705.399 261.274 705.399 227.573 705.399C217.504 705.399 204.876 703.734 205.16 718.392C205.404 731.344 217.179 730.411 226.721 730.411C294.771 730.411 362.822 730.411 430.873 730.411C440.618 730.411 451.256 730.857 451.053 717.133C450.891 704.343 440.537 705.399 431.767 705.399C397.416 705.358 363.066 705.399 328.675 705.399H328.634ZM572.172 223.236C605.914 223.236 639.655 223.236 673.396 223.236C682.369 223.236 692.764 223.317 693.332 211.461C693.982 198.022 683.06 197.9 673.234 197.9C605.751 197.9 538.269 197.9 470.786 197.9C461.894 197.9 451.418 197.413 450.891 209.512C450.322 222.911 461.123 223.196 470.949 223.196C504.69 223.196 538.431 223.196 572.172 223.196V223.236ZM570.629 150.475C604.33 150.475 638.031 150.557 671.731 150.435C680.989 150.435 692.886 152.14 693.089 138.497C693.292 125.504 682.329 125.383 672.462 125.383C605.711 125.464 539 125.383 472.248 125.423C462.828 125.423 451.337 124.205 450.931 137.645C450.525 151.49 462.097 150.354 471.517 150.394C504.568 150.475 537.578 150.394 570.629 150.394V150.475ZM528.402 52.7435C508.141 52.7435 487.88 52.7435 467.619 52.7435C458.686 52.7435 450.647 54.9361 450.769 65.5741C450.891 76.4152 459.295 77.7551 468.066 77.7551C507.938 77.6739 547.77 77.7145 587.642 77.7551C596.534 77.7551 604.695 75.9686 604.452 65.1275C604.208 54.5301 596.128 52.6623 587.196 52.7029C567.625 52.8247 548.013 52.7029 528.443 52.7435H528.402ZM631.209 368.717C646.76 368.717 662.271 368.799 677.822 368.717C687.12 368.636 694.022 364.86 693.657 354.588C693.332 345.249 686.064 342.163 678.106 342.082C647.045 341.798 615.983 341.798 584.881 342.001C575.664 342.041 568.762 346.508 568.965 356.455C569.168 365.794 576.476 368.555 584.597 368.677C600.148 368.88 615.658 368.758 631.209 368.758V368.717ZM253.803 514.036C253.803 514.036 253.803 513.996 253.803 513.955C265.212 513.955 276.662 514.28 288.072 513.833C296.802 513.508 304.597 510.504 304.11 499.906C303.664 489.471 295.949 487.116 287.057 487.076C264.887 487.076 242.718 487.238 220.549 486.995C210.804 486.913 204.267 491.217 204.592 500.8C204.917 510.463 212.266 514.077 221.564 513.996C232.324 513.874 243.084 513.996 253.803 513.996V514.036ZM249.458 295.997C249.458 295.997 249.458 295.957 249.458 295.916C260.949 295.916 272.44 296.2 283.89 295.835C291.686 295.591 296.639 291.368 296.68 283.167C296.68 274.681 291.361 271.148 283.606 271.067C262.005 270.864 240.363 271.026 218.762 270.864C210.682 270.783 205.282 274.64 204.957 282.395C204.632 291.125 210.154 295.916 219.046 295.997C229.157 296.119 239.307 295.997 249.458 295.997ZM657.723 77.6333C666.372 77.6333 673.112 77.7145 679.771 77.6333C687.445 77.5115 693.129 73.9384 693.454 66.0208C693.86 56.8445 687.688 53.1496 679.202 52.9059C672.503 52.7029 665.722 52.1345 659.104 52.9059C648.263 54.2052 630.438 46.7749 630.032 64.5997C629.545 84.9012 648.791 74.9941 657.683 77.6739L657.723 77.6333Z" fill="#FFDAAA" fill-opacity="0.6"/>
<path d="M190.633 0.0412351C181.01 11.4101 178.29 24.3625 178.33 39.3045C178.696 276.102 179.386 512.941 177.965 749.738C177.681 800.98 194.856 836.751 243.214 855.713C194.369 862.818 150.233 821.078 150.273 764.802C150.436 521.508 150.314 278.254 150.395 34.96C150.395 5.40085 157.135 -0.242987 190.633 0.0412351Z" fill="#96C8EF"/>
<path d="M40.8451 729.314C40.8451 594.877 40.8045 460.44 40.7639 325.962C55.8276 325.678 70.8914 325.435 85.9552 325.15C85.7522 458.775 85.5492 592.441 85.3462 726.066C83.8844 727.081 82.4227 728.096 80.961 729.111L81.2452 730.736C67.6432 730.857 54.0005 730.939 40.3984 731.06L40.8451 729.314Z" fill="#FEB957"/>
<path d="M85.9507 325.15C70.8869 325.394 55.8231 325.678 40.7593 325.962C39.3788 325.556 37.9983 325.11 36.5772 324.663C31.8672 298.312 42.1398 276.305 56.8382 255.638C84.3671 268.306 91.7569 285.968 85.9507 325.11V325.15Z" fill="#F84756"/>
<path d="M40.3984 731.019C54.0005 730.897 67.6432 730.816 81.2452 730.694C81.2452 734.633 81.2858 738.571 81.3265 742.51C77.3473 759.117 72.3937 775.398 64.6791 790.746C49.5748 773.693 49.1281 750.671 40.3984 731.019Z" fill="#376C91"/>
<path d="M81.3264 742.552C81.3264 738.613 81.2858 734.675 81.2452 730.736L80.9609 729.112C82.4227 729.64 83.8844 730.168 85.3867 730.696C85.7927 735.243 84.94 739.385 81.3264 742.552Z" fill="#427396"/>
<path d="M85.3867 730.696C83.925 730.168 82.4633 729.64 80.9609 729.113C82.4227 728.098 83.8844 727.082 85.3461 726.067C85.3461 727.61 85.3461 729.153 85.3461 730.696H85.3867Z" fill="#E7A74E"/>
<path d="M568.4 647.904C600.679 647.904 633 648.188 665.279 647.579C676.689 647.376 682.211 649.325 681.926 662.764C681.033 700.404 681.277 738.083 681.845 775.763C682.008 787.01 678.678 791.111 667.025 790.868C634.096 790.096 601.126 790.38 568.156 790.259C568.237 742.834 568.359 695.369 568.441 647.944L568.4 647.904Z" fill="#96C8EF"/>
<path d="M292.099 68.9859C323.16 68.7017 354.222 68.6205 385.283 68.052C394.622 67.8896 398.561 70.9348 398.479 80.7608C398.114 119.943 398.114 159.125 398.479 198.307C398.561 208.255 394.581 211.016 385.283 210.853C352.882 210.244 320.44 210.244 288.039 210.001C288.039 175.569 287.836 141.138 288.242 106.747C288.404 94.1193 285.318 81.0044 292.099 68.9859Z" fill="#96C8EF"/>
<path d="M450.533 414.355C522.116 414.355 593.7 414.355 665.283 414.355C670.684 414.355 676.165 414.111 681.443 414.883C688.833 415.979 694.03 420.039 693.827 428.282C693.624 436.565 688.062 440.138 680.753 441.153C676.124 441.803 671.333 441.518 666.583 441.518C521.386 441.518 376.229 441.518 231.032 441.518C225.673 441.518 220.151 441.64 214.913 440.625C208.173 439.326 204.234 434.291 204.437 427.591C204.64 420.933 208.741 416.101 215.562 415.045C220.841 414.233 226.322 414.395 231.723 414.395C304.646 414.395 377.569 414.395 450.533 414.395V414.355Z" fill="#4F7D9E"/>
<path d="M211.293 583.021C201.752 565.643 205.081 559.959 225.911 559.918C292.175 559.715 358.439 559.837 424.704 559.837C505.179 559.837 585.655 559.837 666.09 559.837C671.49 559.837 676.971 559.593 682.25 560.527C688.868 561.705 693.375 566.09 693.213 573.074C693.05 580.139 688.381 583.874 681.478 584.605C678.108 584.97 674.738 585.011 671.368 585.011C521.948 585.011 372.488 585.011 223.068 584.97C220.389 584.97 217.709 584.321 215.069 583.955C214.257 582.006 213.121 581.194 211.293 582.94V583.021Z" fill="#427396"/>
<path d="M509.126 487.117C563.128 487.117 617.171 487.117 671.173 487.117C681.486 487.117 693.789 486.305 693.505 500.759C693.261 515.011 680.715 514.036 670.605 514.036C563.94 514.118 457.235 514.077 350.57 514.036C340.42 514.036 328.401 515.336 328.604 500.272C328.807 485.005 341.272 487.198 351.098 487.157C403.761 486.995 456.423 487.076 509.085 487.076L509.126 487.117Z" fill="#5380A0"/>
<path d="M568.405 647.904C568.324 695.329 568.202 742.794 568.121 790.219C545.992 791.355 518.26 799.436 503.4 787.539C490.122 776.941 500.03 748.276 499.421 727.568C498.73 704.627 499.421 681.646 499.177 658.705C499.096 650.828 500.517 645.468 510.018 646.037C529.467 647.214 549.078 643.763 568.405 647.904Z" fill="#96C8EF"/>
<path d="M292.098 68.9838C285.317 81.0023 288.403 94.1172 288.241 106.745C287.835 141.176 288.078 175.567 288.038 209.999C266.396 209.999 244.714 210.08 223.073 210.08C221.611 209.024 220.109 207.968 218.606 206.913C218.322 165.213 218.281 123.473 217.591 81.7738C217.429 71.2982 221.002 67.3597 231.559 67.8063C251.698 68.659 271.878 68.659 292.057 68.9838H292.098Z" fill="#96C8EF"/>
<path d="M373.305 368.759C324.622 368.759 275.939 368.718 227.255 368.759C216.861 368.759 204.599 369.693 204.68 355.441C204.761 341.555 216.699 341.717 227.255 341.758C325.962 341.839 424.668 341.798 523.374 341.758C533.119 341.758 544.488 341.555 545.097 354.182C545.787 368.353 533.891 368.718 523.334 368.718C473.311 368.718 423.288 368.718 373.224 368.718L373.305 368.759Z" fill="#5380A0"/>
<path d="M509.445 270.783C562.757 270.783 616.11 270.661 669.422 270.905C679.004 270.905 692.565 267.86 692.931 282.639C693.296 296.728 680.709 296.079 670.396 296.079C561.701 296.079 453.047 296.079 344.353 296.079C333.999 296.079 321.33 296.607 321.777 282.68C322.224 268.347 335.663 270.905 345.408 270.864C400.101 270.702 454.753 270.783 509.445 270.783Z" fill="#427396"/>
<path d="M327.588 657.973C293.888 657.973 260.187 657.973 226.446 657.973C217.067 657.973 205.413 659.354 205.048 645.955C204.683 632.84 215.605 632.637 225.471 632.637C294.253 632.677 362.994 632.637 431.776 632.637C440.871 632.637 450.9 632.677 451.144 644.818C451.387 658.46 440.384 657.932 430.761 657.932C396.37 657.932 361.979 657.932 327.629 657.932L327.588 657.973Z" fill="#49789A"/>
<path d="M327.422 778.12C362.504 778.12 397.585 778.12 432.666 778.12C441.883 778.12 451.546 778.445 451.222 790.869C450.897 803.091 441.152 803.172 432.016 803.172C362.544 803.172 293.072 803.091 223.56 803.172C213.977 803.172 204.679 801.751 204.923 790.098C205.166 778.201 214.911 777.957 224.25 777.998C258.641 778.16 293.072 778.079 327.463 778.079L327.422 778.12Z" fill="#49789A"/>
<path d="M328.645 705.399C362.995 705.399 397.345 705.399 431.736 705.399C440.506 705.399 450.86 704.343 451.023 717.133C451.226 730.857 440.588 730.41 430.843 730.41C362.792 730.41 294.741 730.41 226.69 730.41C217.148 730.41 205.414 731.385 205.13 718.392C204.845 703.734 217.473 705.399 227.543 705.399C261.243 705.399 294.903 705.399 328.604 705.399H328.645Z" fill="#427396"/>
<path d="M572.173 223.235C538.432 223.235 504.691 223.235 470.95 223.235C461.124 223.235 450.283 222.951 450.892 209.552C451.42 197.452 461.895 197.939 470.787 197.939C538.27 197.939 605.752 197.939 673.235 197.939C683.061 197.939 693.983 198.02 693.333 211.501C692.765 223.357 682.37 223.235 673.397 223.276C639.656 223.276 605.915 223.276 572.173 223.276V223.235Z" fill="#49789A"/>
<path d="M570.63 150.477C537.579 150.477 504.569 150.518 471.518 150.477C462.098 150.477 450.526 151.574 450.932 137.728C451.338 124.288 462.788 125.506 472.249 125.506C539.001 125.506 605.712 125.506 672.463 125.466C682.37 125.466 693.293 125.588 693.09 138.581C692.887 152.183 680.99 150.477 671.732 150.518C638.032 150.64 604.331 150.559 570.63 150.559V150.477Z" fill="#427396"/>
<path d="M528.41 52.7415C547.98 52.7415 567.592 52.8227 587.162 52.7008C596.095 52.6602 604.175 54.4874 604.419 65.1254C604.662 76.0071 596.501 77.7936 587.609 77.753C547.737 77.753 507.905 77.7124 468.033 77.753C459.222 77.753 450.858 76.4131 450.736 65.5721C450.614 54.8934 458.653 52.7415 467.586 52.7415C487.847 52.7415 508.108 52.7415 528.369 52.7415H528.41Z" fill="#49789A"/>
<path d="M631.218 368.716C615.667 368.716 600.156 368.879 584.605 368.635C576.485 368.513 569.176 365.752 568.973 356.414C568.77 346.466 575.673 341.999 584.89 341.959C615.951 341.756 647.012 341.756 678.114 342.04C686.073 342.121 693.341 345.166 693.666 354.546C694.031 364.818 687.128 368.635 677.83 368.676C662.279 368.798 646.769 368.676 631.218 368.676V368.716Z" fill="#5380A0"/>
<path d="M253.809 514.035C243.049 514.035 232.289 513.954 221.57 514.035C212.272 514.157 204.922 510.502 204.598 500.839C204.273 491.256 210.81 486.912 220.555 487.034C242.724 487.277 264.893 487.115 287.063 487.115C295.955 487.115 303.669 489.47 304.116 499.946C304.563 510.543 296.767 513.507 288.078 513.872C276.668 514.319 265.218 513.994 253.809 513.994C253.809 513.994 253.809 514.035 253.809 514.075V514.035Z" fill="#5380A0"/>
<path d="M249.463 295.998C239.313 295.998 229.202 296.079 219.052 295.998C210.159 295.917 204.597 291.126 204.962 282.396C205.287 274.641 210.687 270.783 218.767 270.865C240.368 271.027 262.01 270.865 283.611 271.068C291.366 271.149 296.725 274.681 296.685 283.167C296.685 291.369 291.691 295.592 283.895 295.836C272.445 296.201 260.954 295.917 249.463 295.917C249.463 295.917 249.463 295.957 249.463 295.998Z" fill="#427396"/>
<path d="M657.73 77.6323C648.838 74.9525 629.592 84.8597 630.079 64.5581C630.485 46.7333 648.31 54.1637 659.151 52.8644C665.77 52.0523 672.55 52.6614 679.25 52.8644C687.736 53.108 693.908 56.8029 693.502 65.9792C693.136 73.9374 687.492 77.4699 679.818 77.5917C673.119 77.7135 666.419 77.5917 657.771 77.5917L657.73 77.6323Z" fill="#49789A"/>
<path d="M218.645 206.914C220.147 207.97 221.609 209.025 223.111 210.081C220.634 210.447 218.807 209.837 218.645 206.914Z" fill="#45BE64"/>
<path d="M211.297 583.023C213.124 581.236 214.22 582.089 215.073 584.038C213.814 583.713 212.556 583.388 211.297 583.023Z" fill="#376C91"/>
</svg>
