<svg width="799" height="535" viewBox="0 0 799 535" fill="none" xmlns="http://www.w3.org/2000/svg">
<path d="M288.461 238.95C289.805 237.663 291.121 237.692 292.38 239.036C291.064 239.008 289.777 238.979 288.461 238.95Z" fill="#B3BAB9"/>
<path d="M59.5175 532.77C28.3664 530.596 0.619289 505.28 0.447658 473.9C-0.296078 352.185 0.447658 230.441 0.6765 108.697C6.85523 108.84 13.034 109.126 19.2127 109.126C278.634 109.155 538.083 109.184 797.504 109.212C797.619 230.413 797.905 351.584 797.647 472.785C797.59 502.134 775.764 526.048 745.815 532.198C739.378 530.625 732.971 529.366 726.191 529.366C508.82 529.48 291.449 529.452 74.0776 529.538C69.1002 529.538 63.4364 527.621 59.5175 532.799V532.77ZM516.172 165.393C509.106 166.137 501.869 166.165 494.975 167.71C437.908 180.325 404.096 237.392 420.401 293.258C436.106 347.093 496.834 378.302 550.612 356.361C570.064 348.409 581.649 348.552 593.921 364.514C598.211 370.121 604.476 370.121 610.712 366.631C617.205 362.998 617.777 357.162 617.377 350.64C616.919 343.575 611.799 339.484 607.165 335.794C597.897 328.414 597.039 322.092 602.817 310.822C637.773 242.913 591.375 165.965 516.172 165.393ZM344.34 309.306C349.088 309.306 353.951 309.935 358.585 309.191C371.429 307.103 377.608 312.738 380.497 324.982C382.671 334.164 386.447 343.031 390.251 351.727C393.57 359.365 400.034 361.796 407.929 359.136C415.567 356.562 419.801 350.898 418.742 342.831C418.084 337.739 415.767 332.848 413.965 327.928C396.287 279.757 378.409 231.671 361.017 183.386C357.927 174.775 353.579 169.14 344.082 169.112C334.929 169.083 331.153 174.947 328.292 182.842C310.357 232.415 292.021 281.873 274 331.389C272.398 335.794 271.511 340.543 270.967 345.205C270.138 352.3 273.37 356.991 280.321 359.165C287.616 361.453 293.709 359.937 297.456 353.186C300.202 348.238 302.147 342.831 304.092 337.482C310.843 318.717 324.25 309.325 344.311 309.306H344.34ZM231.921 169.655C221.938 169.655 211.955 169.598 201.972 169.655C185.381 169.741 180.289 174.318 180.232 190.394C180.06 240.796 180.232 291.227 180.117 341.63C180.117 352.185 184.122 359.737 195.278 360.08C207.693 360.481 211.125 352.214 210.982 341.143C210.753 323.551 211.554 305.93 210.753 288.367C210.239 277.411 213.185 273.034 224.884 273.635C239.044 274.35 253.347 274.55 267.592 272.663C277.146 271.404 283.067 267.542 282.352 257.445C281.666 247.662 275.287 243.485 265.933 243.342C257.838 243.228 249.771 243.285 241.676 243.285C208.808 243.285 209.009 243.285 210.753 210.189C211.125 202.923 213.242 200.034 220.737 200.234C236.412 200.635 252.117 200.32 267.821 200.377C278.348 200.434 284.469 194.57 284.412 184.844C284.355 175.09 278.09 169.426 267.592 169.598C255.692 169.769 243.821 169.626 231.921 169.626V169.655ZM400.549 466.864C365.794 466.864 331.038 466.835 296.283 466.921C291.649 466.921 286.557 465.719 282.81 469.81C279.606 473.328 275.916 477.018 278.462 482.368C282.381 490.549 290.047 491.407 297.885 491.407C365.965 491.435 434.046 491.464 502.126 491.407C510.536 491.407 519.518 490.606 519.862 479.564C520.234 467.493 511.137 466.778 501.926 466.806C468.115 466.892 434.332 466.835 400.521 466.864H400.549ZM398.547 420.666C363.82 420.666 329.065 420.809 294.338 420.58C285.671 420.523 278.233 422.583 278.29 432.251C278.348 441.977 285.928 443.722 294.51 443.693C363.992 443.522 433.474 443.55 502.927 443.607C511.051 443.607 519.318 442.95 519.69 432.737C520.119 421.41 511.337 420.666 502.727 420.695C468 420.723 433.245 420.695 398.518 420.695L398.547 420.666Z" fill="#74BEC7"/>
<path d="M797.533 109.183C538.112 109.183 278.662 109.154 19.2413 109.097C13.0626 109.097 6.88387 108.811 0.705133 108.668C0.504897 92.9639 -0.467682 77.231 0.276055 61.5839C1.90655 26.6283 31.3127 0.139848 68.1277 0.111243C202.916 -0.00317837 337.704 0.0254269 472.491 0.0254269C557.277 0.0254269 642.035 -0.0317836 726.821 0.0254269C771.245 0.0540321 798.248 26.6283 798.477 70.7376C798.534 83.5241 800.107 96.3965 797.504 109.154L797.533 109.183ZM723.216 80.7208L722.845 80.2345C736.947 73.4551 741.495 62.7853 737.319 44.7068C734.315 31.7486 724.933 27.9442 712.633 27.9728C567.776 28.0586 422.919 28.03 278.062 27.9155C266.906 27.9155 258.353 31.5198 254.577 42.5614C250 55.9773 254.09 70.3657 264.131 77.9461C267.392 81.865 271.854 82.0939 276.431 81.9795L280.35 82.0653C312.188 82.1225 344.054 82.2083 375.892 82.2083C490.456 82.1225 605.02 81.9795 719.584 81.865C720.785 81.4932 721.986 81.1213 723.188 80.7494L723.216 80.7208ZM92.8998 55.2622C93.1287 44.2491 82.6592 33.4364 71.1599 32.7784C59.8036 32.1205 48.9908 42.1324 48.4759 53.7747C47.9324 66.1036 58.0873 76.8019 70.5305 77.0021C81.5722 77.1738 92.6996 66.361 92.9284 55.2622H92.8998ZM156.032 54.3182C155.688 43.3052 144.647 32.4638 133.834 32.4638C121.448 32.4924 111.236 42.9047 111.436 55.2908C111.636 67.6196 122.363 77.6887 134.663 77.1166C145.419 76.6017 156.375 64.9021 156.032 54.3182ZM174.511 53.7747C173.795 64.7305 183.607 75.9152 194.906 77.0594C205.547 78.1178 217.819 68.0487 218.935 57.3789C220.107 46.0513 209.953 33.608 198.539 32.4066C187.64 31.2624 175.226 42.304 174.482 53.7747H174.511Z" fill="#376C91"/>
<path d="M59.5208 532.768C63.4397 527.59 69.1322 529.507 74.0809 529.507C291.452 529.421 508.823 529.45 726.195 529.335C732.974 529.335 739.353 530.594 745.818 532.167C740.755 536 734.833 534.742 729.227 534.742C510.597 534.828 291.967 534.828 73.3371 534.799C68.6745 534.799 63.7544 535.886 59.4922 532.768H59.5208Z" fill="#8DCBCD"/>
<path d="M516.17 165.391C591.373 165.963 637.771 242.911 602.815 310.82C597.008 322.09 597.895 328.412 607.163 335.792C611.797 339.482 616.917 343.573 617.375 350.638C617.776 357.16 617.203 362.996 610.71 366.629C604.503 370.118 598.238 370.09 593.919 364.512C581.647 348.55 570.062 348.407 550.61 356.359C496.833 378.328 436.132 347.091 420.399 293.256C404.094 237.419 437.906 180.323 494.973 167.708C501.867 166.192 509.104 166.134 516.17 165.391ZM516.055 332.417C553.557 332.388 585.023 301.838 585.337 265.137C585.68 228.294 553.757 195.941 516.399 195.197C479.298 194.482 446.916 226.949 446.316 265.48C445.744 300.979 478.554 332.445 516.055 332.417Z" fill="#F8FBFC"/>
<path d="M344.338 309.307C324.239 309.307 310.832 318.699 304.119 337.483C302.203 342.832 300.258 348.267 297.483 353.187C293.736 359.938 287.643 361.454 280.349 359.166C273.397 356.992 270.165 352.3 270.995 345.206C271.538 340.544 272.425 335.795 274.027 331.39C292.077 281.846 310.384 232.416 328.32 182.843C331.18 174.948 334.985 169.084 344.11 169.112C353.607 169.141 357.955 174.776 361.044 183.386C378.407 231.672 396.314 279.758 413.992 327.929C415.794 332.82 418.111 337.74 418.769 342.832C419.799 350.899 415.566 356.534 407.957 359.137C400.09 361.797 393.625 359.366 390.278 351.728C386.503 343.032 382.698 334.165 380.524 324.982C377.635 312.739 371.456 307.104 358.612 309.192C353.978 309.936 349.116 309.307 344.367 309.307H344.338ZM345.197 228.497C335.843 244.316 332.982 260.277 326.517 274.723C325.43 277.154 324.458 281.388 327.833 282.017C338.503 284.048 349.402 283.762 360.129 282.246C363.676 281.731 363.161 277.784 362.217 275.152C356.868 260.192 351.347 245.288 345.197 228.497Z" fill="#F8FBFC"/>
<path d="M231.921 169.654C243.821 169.654 255.692 169.797 267.592 169.626C278.119 169.483 284.355 175.118 284.412 184.872C284.469 194.598 278.348 200.462 267.821 200.405C252.117 200.319 236.412 200.662 220.737 200.262C213.242 200.062 211.125 202.951 210.753 210.217C209.008 243.313 208.78 243.313 241.676 243.313C249.771 243.313 257.838 243.256 265.933 243.37C275.258 243.513 281.666 247.689 282.352 257.472C283.039 267.57 277.146 271.403 267.592 272.69C253.347 274.578 239.073 274.378 224.884 273.663C213.185 273.062 210.239 277.41 210.753 288.395C211.583 305.958 210.753 323.579 210.982 341.171C211.125 352.242 207.693 360.509 195.278 360.108C184.122 359.765 180.117 352.213 180.117 341.658C180.203 291.255 180.06 240.824 180.232 190.422C180.289 174.346 185.381 169.769 201.972 169.683C211.955 169.626 221.938 169.683 231.921 169.683V169.654Z" fill="#F6FAFB"/>
<path d="M400.544 466.863C434.356 466.863 468.138 466.92 501.95 466.834C511.161 466.834 520.257 467.521 519.885 479.592C519.542 490.605 510.56 491.406 502.15 491.435C434.07 491.492 365.989 491.435 297.909 491.435C290.071 491.435 282.405 490.577 278.486 482.396C275.94 477.075 279.63 473.385 282.834 469.838C286.581 465.747 291.673 466.977 296.307 466.949C331.062 466.863 365.818 466.892 400.573 466.892L400.544 466.863Z" fill="#F6F1E6"/>
<path d="M398.548 420.666C433.275 420.666 468.031 420.695 502.757 420.666C511.368 420.666 520.149 421.381 519.72 432.709C519.32 442.921 511.053 443.579 502.958 443.579C433.475 443.522 363.993 443.493 294.54 443.665C285.93 443.665 278.378 441.949 278.321 432.223C278.263 422.554 285.701 420.495 294.368 420.552C329.095 420.781 363.85 420.638 398.577 420.666H398.548Z" fill="#F8F1E7"/>
<path d="M264.159 77.9183C254.119 70.3379 250 55.9494 254.605 42.5336C258.381 31.492 266.934 27.8877 278.09 27.8877C422.947 28.0021 567.804 28.0021 712.661 27.9449C724.961 27.9449 734.344 31.7494 737.347 44.679C741.523 62.7575 737.004 73.4273 722.873 80.2067C720.441 77.1745 716.98 77.6036 713.691 77.6036C563.856 77.6894 414.022 77.8038 264.188 77.9183H264.159Z" fill="#FDF3E7"/>
<path d="M264.156 77.9166C413.991 77.8022 563.825 77.7164 713.659 77.6019C716.949 77.6019 720.41 77.1729 722.841 80.205L723.213 80.6913C722.012 81.0632 720.81 81.435 719.609 81.8069C605.045 81.9213 490.481 82.0643 375.917 82.1502C344.079 82.1502 312.213 82.0643 280.375 82.0357C279.088 80.6913 277.801 80.6627 276.457 81.9499C271.88 82.0643 267.417 81.8069 264.156 77.9166Z" fill="#FDFCF5"/>
<path d="M92.9031 55.2626C92.6742 66.3328 81.5468 77.1742 70.5052 77.0025C58.0619 76.8023 47.907 66.1039 48.4505 53.7751C48.9654 42.1041 59.7782 32.1209 71.1345 32.7788C82.6338 33.4367 93.1033 44.2495 92.8745 55.2626H92.9031Z" fill="#F4D456"/>
<path d="M156.028 54.3173C156.371 64.9298 145.416 76.6008 134.66 77.1157C122.36 77.7164 111.604 67.6187 111.433 55.2899C111.232 42.9038 121.444 32.4915 133.83 32.4629C144.643 32.4629 155.685 43.3043 156.028 54.3173Z" fill="#E2634E"/>
<path d="M174.511 53.7732C175.255 42.3025 187.669 31.2609 198.568 32.4051C209.953 33.6065 220.136 46.0498 218.964 57.3775C217.848 68.0472 205.548 78.1163 194.935 77.0579C183.636 75.9137 173.796 64.729 174.54 53.7732H174.511Z" fill="#98C85B"/>
<path d="M516.052 332.416C478.55 332.445 445.74 300.979 446.312 265.48C446.913 226.949 479.294 194.482 516.395 195.197C553.782 195.941 585.677 228.293 585.334 265.137C584.99 301.837 553.553 332.388 516.052 332.416Z" fill="#75BFC8"/>
<path d="M345.197 228.496C351.347 245.259 356.868 260.191 362.217 275.151C363.161 277.783 363.676 281.759 360.129 282.245C349.402 283.761 338.504 284.076 327.834 282.017C324.458 281.359 325.431 277.154 326.518 274.722C332.983 260.248 335.843 244.315 345.197 228.496Z" fill="#75BFC8"/>
</svg>
