<svg width="616" height="935" viewBox="0 0 616 935" fill="none" xmlns="http://www.w3.org/2000/svg">
<path d="M0.076229 502.517C0.076229 366.345 0.076229 230.173 0.076229 94.0017C0.076229 74.7918 2.3123 72.5303 21.3189 72.5303C61.3141 72.5303 101.309 72.6066 141.304 72.4541C147.098 72.4541 150.808 72.632 152.231 80.1279C154.238 90.6476 163.996 96.314 171.085 103.403C175.659 107.952 177.183 111.611 174.541 118.192C171.847 124.9 167.375 124.112 162.395 124.112C156.042 124.112 149.69 123.935 143.363 124.239C130.454 124.875 120.977 133.743 120.621 146.524C120.138 163.65 120.189 180.802 120.621 197.928C120.9 209.515 128.93 218.358 140.542 219.832C148.673 220.873 157.008 220.823 165.241 220.594C170.678 220.441 172.914 222.754 174.922 227.505C176.955 232.359 176.7 235.611 172.711 239.168C167.731 243.59 163.106 248.418 158.558 253.296C148.75 263.867 148.191 277.207 157.872 287.524C168.925 299.339 180.41 310.774 192.201 321.852C202.568 331.584 215.933 331.305 226.555 321.801C231.052 317.787 235.296 313.467 239.387 309.046C243.274 304.828 246.552 302.49 253.159 305.133C260.07 307.877 259.816 312.349 259.689 317.787C259.562 323.504 259.562 329.221 259.689 334.913C260.07 349.168 268.913 359.256 283.143 359.891C299.303 360.628 315.54 360.577 331.701 359.967C346.286 359.408 355.408 349.625 356.323 334.786C356.704 328.459 356.755 322.081 356.323 315.754C355.967 310.24 357.848 307.419 363.082 305.107C368.545 302.693 371.798 303.837 375.431 307.902C379.878 312.857 384.655 317.558 389.585 322.03C399.749 331.279 413.165 331.559 423.049 322.208C434.814 311.079 446.249 299.619 457.404 287.905C467.339 277.487 467.237 264.528 457.607 253.678C453.186 248.697 448.383 244.022 443.504 239.499C439.973 236.221 438.143 233.426 440.481 228.09C442.869 222.627 445.613 220.264 451.712 220.619C458.979 221.051 466.348 220.924 473.564 220.136C486.371 218.714 495.188 209.617 495.595 196.759C496.128 180.268 496.205 163.726 495.544 147.261C495.01 133.743 484.872 124.671 471.227 124.239C464.569 124.036 457.861 123.782 451.229 124.29C445.436 124.722 443.022 122.156 440.735 117.15C438.245 111.738 439.795 108.689 443.555 104.852C452.068 96.1361 462.943 89.0214 464.976 75.4525C465.484 72.0221 468.711 72.6066 471.15 72.6066C514.652 72.6066 558.129 72.5049 601.605 72.6828C610.676 72.7082 615.352 77.7902 615.936 86.9632C616.063 89.1738 615.961 91.4099 615.961 93.6206C615.961 366.599 615.961 639.578 615.961 912.556C615.961 930.699 612.582 934.028 594.261 934.028C403.154 934.028 212.071 934.028 20.9632 934.028C3.12542 934.028 0.0254099 930.902 0 912.988C0 776.181 0 639.374 0 502.568L0.076229 502.517ZM128.447 484.857C126.719 480.461 123.416 478.657 118.791 478.682C101.665 478.733 84.5133 478.479 67.3871 478.784C57.6297 478.962 50.5403 486 50.337 495.681C50.0321 511.868 49.9559 528.054 50.3624 544.214C50.6165 554.378 58.4174 562.128 68.6576 562.382C84.5133 562.789 100.395 562.84 116.25 562.357C126.745 562.027 132.03 556.233 134.266 546.146C136.832 534.508 135.384 522.794 135.918 511.105C143.159 504.143 150.427 497.206 157.643 490.218C165.647 482.468 167.045 475.328 161.683 470.043C156.576 464.986 149.791 466.308 141.991 473.397C137.62 477.361 134.241 482.57 128.422 484.857H128.447ZM135.765 613.761C143.261 606.545 150.808 599.354 158.253 592.087C165.622 584.921 166.943 577.603 161.886 572.445C156.576 567.032 151.011 567.795 142.982 575.037C137.595 579.915 132.208 584.769 126.846 589.647C107.128 584.972 87.1306 587.691 67.2854 587.614C57.6551 587.589 50.5657 596.051 50.3624 606.011C50.0321 621.842 50.0829 637.697 50.337 653.528C50.4895 663.743 57.528 670.908 67.692 671.086C83.8527 671.366 100.013 671.315 116.149 671.111C126.16 670.984 132.182 665.216 134.317 655.383C137.315 641.56 135.282 627.635 135.765 613.761ZM296.076 438.789C370.959 438.789 445.817 438.585 520.7 438.967C535.031 439.043 541.028 428.98 541.307 420.29C541.638 409.821 532.922 402.503 520.776 402.503C370.4 402.453 220.024 402.503 69.6486 402.427C65.0239 402.427 60.8567 403.189 57.2231 406.162C50.5657 411.625 48.3805 418.766 51.201 426.617C54.301 435.282 61.0854 438.89 70.5379 438.865C145.726 438.687 220.914 438.763 296.102 438.763L296.076 438.789ZM295.975 711.03C221.371 711.03 146.768 711.03 72.1895 711.03C67.4125 711.03 62.5592 710.675 58.4682 713.775C51.4551 719.06 48.4567 725.692 51.328 734.56C54.4788 744.267 61.2633 747.443 70.9445 747.443C220.151 747.341 369.333 747.24 518.54 747.646C530.762 747.671 540.672 739.312 541.333 729.478C542.095 717.967 533.328 711.056 518.819 711.056C444.546 711.056 370.248 711.056 295.975 711.056V711.03ZM296.584 808.172C249.601 808.172 202.644 808.172 155.661 808.172C126.77 808.172 97.9044 808.045 69.0133 808.249C54.2247 808.35 46.0936 821.436 52.3952 834.675C56.3592 843.009 63.6518 844.61 72.2404 844.585C220.787 844.458 369.333 844.483 517.879 844.483C520.09 844.483 522.377 844.737 524.537 844.382C532.007 843.136 537.445 838.969 539.783 831.778C544.102 818.565 535.946 808.198 521.335 808.198C446.427 808.147 371.518 808.198 296.61 808.172H296.584ZM356.094 648.268C384.655 648.268 413.216 648.268 441.751 648.268C468.406 648.268 495.061 648.217 521.716 648.268C530.406 648.268 535.844 643.542 539.681 636.427C543.594 629.16 540.875 622.655 536.124 617.217C531.296 611.703 524.613 610.128 517.219 610.153C409.658 610.28 302.098 610.229 194.538 610.229C191.057 610.229 187.678 610.382 184.247 611.551C171.136 616.048 166.333 629.16 174.083 640.442C178.428 646.794 185.06 648.319 192.404 648.293C246.984 648.217 301.539 648.243 356.12 648.243L356.094 648.268ZM355.942 501.602C302.327 501.602 248.712 501.602 195.097 501.602C192.556 501.602 189.99 501.424 187.5 501.678C177.564 502.745 170.678 510.165 170.323 519.948C169.992 528.791 176.573 535.905 186.204 538.091C191.54 539.285 196.8 539.615 202.212 539.615C278.67 539.59 355.129 539.615 431.587 539.615C459.182 539.615 486.778 539.691 514.398 539.564C522.021 539.539 530.025 539.107 535.615 533.161C540.469 527.977 543.645 521.676 539.96 514.129C535.997 506.074 530.076 501.526 520.649 501.526C465.764 501.653 410.878 501.577 355.993 501.577L355.942 501.602Z" fill="#63BCE7" fill-opacity="0.75"/>
<path d="M480.527 172.415C480.527 179.403 480.527 186.365 480.527 193.353C480.527 201.052 477.122 205.143 468.966 204.915C460.098 204.661 451.204 205.016 442.311 204.838C435.679 204.711 432.706 208.218 429.377 213.732C418.807 231.138 421.449 244.884 438.347 256.166C440.939 257.894 442.845 260.613 445.106 262.849C450.315 268.033 450.493 273.42 445.36 278.654C435.12 289.047 424.778 299.363 414.411 309.603C409.227 314.736 403.84 314.787 398.58 309.603C392.025 303.149 385.469 296.695 379.066 290.089C376.245 287.166 373.043 284.778 369.029 286.252C360.72 289.301 352.538 292.731 344.483 296.39C341.18 297.889 341.205 301.548 341.205 304.776C341.205 313.339 341.307 321.902 341.154 330.465C340.925 341.798 338.207 344.694 327.102 344.847C314.093 345.025 301.083 345.025 288.073 344.847C277.985 344.694 275.088 341.696 274.987 331.761C274.885 323.833 274.987 315.905 274.961 307.977C274.961 306.071 275.393 303.988 274.758 302.311C270.337 290.419 257.251 292.706 248.916 286.989C244.52 283.965 239.972 286.379 236.287 290.266C230.189 296.721 223.71 302.819 217.484 309.171C211.945 314.812 206.634 314.812 201.069 309.171C191.032 299.007 180.97 288.869 170.755 278.908C164.962 273.267 165.191 268.033 170.73 262.544C177.26 256.065 183.587 249.382 190.295 243.08C194.666 238.989 195.632 234.771 192.608 229.562C191.49 227.656 190.092 225.674 189.787 223.565C187.221 206.338 176.142 203.949 160.947 204.61C133.86 205.804 135.537 206.668 135.639 179.784C135.69 169.951 135.74 160.117 135.639 150.283C135.537 142.686 139.171 139.306 146.692 139.433C155.89 139.586 165.089 139.357 174.287 139.484C180.106 139.56 183.46 136.994 185.747 131.531C195.962 107.188 196.089 107.239 177.438 88.6135C175.634 86.8094 173.83 85.0561 172.077 83.2266C164.327 75.197 164.301 72.1478 172.127 64.22C181.732 54.5134 191.464 44.9847 201.044 35.2527C206.583 29.6117 211.869 29.51 217.408 35.1764C223.608 41.5289 230.164 47.5765 236.186 54.0814C240.76 59.0109 245.155 59.4429 251.355 56.6986C274.809 46.3568 274.91 46.5601 274.91 20.5657C274.91 17.3895 275.012 14.2133 274.91 11.037C274.682 3.41407 278.442 0.034549 285.913 0.0853688C300.193 0.161599 314.474 0.364878 328.754 0.0091398C337.343 -0.219549 341.027 3.84603 341.103 11.901C341.205 21.0994 341.281 30.2977 341.103 39.4961C341.002 45.0101 343.161 48.5675 348.548 50.1429C350.988 50.8544 353.732 51.2863 355.663 52.7093C368.953 62.5429 377.871 56.6986 387.578 46.0519C406.432 25.3936 405.822 25.8002 425.515 45.8994C431.054 51.5658 436.746 57.1052 442.336 62.7462C451.331 71.7921 451.382 75.1462 442.667 83.9635C437.534 89.1471 432.35 94.2799 427.192 99.4635C425.845 100.81 424.092 102.004 423.355 103.631C417.994 115.548 429.098 123.4 431.105 133.564C432.122 138.696 436.975 139.51 441.777 139.459C450.976 139.357 460.174 139.509 469.372 139.433C476.945 139.357 480.4 143.27 480.477 150.563C480.553 157.855 480.477 165.148 480.477 172.466L480.527 172.415ZM404.603 172.873C404.806 119.487 361.431 75.502 308.299 75.2479C255.243 74.9938 211.716 118.216 210.852 172.009C210.014 223.82 254.481 268.719 306.978 269.075C360.364 269.43 404.399 226.03 404.603 172.873Z" fill="#49789A"/>
<path d="M296.074 438.79C220.886 438.79 145.698 438.714 70.5099 438.892C61.0574 438.892 54.2984 435.309 51.1729 426.644C48.3779 418.818 50.5631 411.652 57.1951 406.189C60.8287 403.216 65.0213 402.454 69.6205 402.454C219.996 402.505 370.372 402.454 520.748 402.53C532.894 402.53 541.61 409.848 541.279 420.317C541 429.007 535.003 439.07 520.672 438.994C445.789 438.587 370.931 438.816 296.048 438.816L296.074 438.79Z" fill="white"/>
<path d="M295.971 711.03C370.244 711.03 444.543 711.03 518.816 711.03C533.325 711.03 542.091 717.941 541.329 729.452C540.668 739.286 530.758 747.645 518.536 747.62C369.329 747.214 220.148 747.315 70.9409 747.417C61.2597 747.417 54.4753 744.215 51.3245 734.534C48.4532 725.666 51.4515 719.034 58.4647 713.749C62.5557 710.674 67.4089 711.004 72.186 711.004C146.789 711.004 221.393 711.004 295.971 711.004V711.03Z" fill="white"/>
<path d="M296.586 808.197C371.494 808.197 446.403 808.172 521.311 808.223C535.947 808.223 544.104 818.59 539.759 831.803C537.396 838.994 531.983 843.161 524.513 844.407C522.353 844.762 520.066 844.508 517.855 844.508C369.309 844.508 220.763 844.483 72.2165 844.61C63.6279 844.61 56.3353 843.009 52.3713 834.7C46.0697 821.461 54.2008 808.375 68.9894 808.274C97.8805 808.07 126.746 808.197 155.637 808.197C202.62 808.197 249.578 808.197 296.56 808.197H296.586Z" fill="white"/>
<path d="M356.092 648.266C301.511 648.266 246.956 648.241 192.376 648.317C185.032 648.317 178.4 646.818 174.055 640.465C166.331 629.183 171.133 616.072 184.219 611.574C187.624 610.405 191.029 610.253 194.51 610.253C302.07 610.253 409.631 610.304 517.191 610.177C524.585 610.177 531.268 611.752 536.096 617.241C540.847 622.678 543.566 629.183 539.653 636.451C535.816 643.565 530.378 648.317 521.688 648.292C495.033 648.241 468.378 648.292 441.723 648.292C413.163 648.292 384.602 648.292 356.067 648.292L356.092 648.266Z" fill="white"/>
<path d="M355.944 501.603C410.829 501.603 465.715 501.679 520.6 501.552C530.052 501.552 535.973 506.075 539.911 514.155C543.621 521.702 540.445 528.003 535.566 533.187C529.976 539.133 521.972 539.54 514.349 539.59C486.754 539.717 459.159 539.641 431.538 539.641C355.08 539.641 278.621 539.641 202.163 539.641C196.776 539.641 191.491 539.311 186.155 538.117C176.524 535.931 169.943 528.817 170.274 519.974C170.629 510.191 177.541 502.771 187.451 501.704C189.966 501.425 192.533 501.628 195.048 501.628C248.663 501.628 302.278 501.628 355.893 501.628L355.944 501.603Z" fill="white"/>
<path d="M135.767 613.762C135.285 627.635 137.343 641.56 134.319 655.383C132.185 665.217 126.137 670.985 116.151 671.112C99.9903 671.315 83.8296 671.366 67.6943 671.086C57.5304 670.909 50.4918 663.743 50.3394 653.528C50.0853 637.698 50.0345 621.842 50.3648 606.012C50.5681 596.051 57.6574 587.589 67.2878 587.615C87.1329 587.691 107.156 584.972 126.849 589.648C116.202 600.676 105.25 611.373 92.901 621.156C90.0296 615.693 87.819 610.763 84.9731 606.24C81.2124 600.269 75.5206 598.592 69.3968 602.048C63.7304 605.275 62.0279 610.509 64.9501 616.709C69.1427 625.577 73.0812 634.598 77.655 643.263C83.5247 654.367 91.2239 655.358 100.371 646.795C112.136 635.767 123.952 624.79 135.767 613.787V613.762Z" fill="white"/>
<path d="M135.944 511.129C135.411 522.792 136.859 534.531 134.293 546.169C132.057 556.257 126.771 562.05 116.277 562.38C100.421 562.863 84.5401 562.812 68.6844 562.406C58.4442 562.152 50.6433 554.402 50.3892 544.238C49.9827 528.077 50.0589 511.866 50.3638 495.705C50.5417 486.024 57.6565 478.96 67.4139 478.807C84.5401 478.502 101.666 478.756 118.818 478.706C123.443 478.706 126.746 480.484 128.474 484.88C120.953 492.529 113.507 500.253 105.859 507.775C94.018 519.412 93.9418 519.387 85.5057 505.005C82.0246 499.084 77.2729 495.959 70.5647 499.161C63.6786 502.438 62.027 508.105 65.254 514.991C69.2688 523.579 73.2835 532.193 77.5778 540.655C83.4983 552.369 90.4098 553.538 99.8623 544.721C111.881 533.515 123.925 522.334 135.97 511.154L135.944 511.129Z" fill="white"/>
<path d="M135.764 613.759C123.974 624.761 112.133 635.738 100.368 646.766C91.2203 655.355 83.5211 654.364 77.6515 643.234C73.0777 634.569 69.1391 625.549 64.9465 616.681C61.999 610.455 63.7014 605.221 69.3932 602.019C75.517 598.563 81.2088 600.24 84.9695 606.212C87.8154 610.735 90.0261 615.664 92.8974 621.127C105.247 611.345 116.198 600.672 126.845 589.619C132.232 584.74 137.619 579.887 143.006 575.008C151.01 567.767 156.6 567.004 161.911 572.417C166.967 577.575 165.646 584.893 158.277 592.058C150.807 599.326 143.285 606.517 135.789 613.733L135.764 613.759Z" fill="#F6A6A7"/>
<path d="M135.947 511.129C123.903 522.309 111.858 533.49 99.8395 544.695C90.387 553.513 83.4756 552.344 77.555 540.63C73.2862 532.168 69.2714 523.58 65.2312 514.966C62.0042 508.08 63.6812 502.413 70.5419 499.135C77.2501 495.934 82.0018 499.059 85.4829 504.98C93.919 519.362 93.9953 519.412 105.836 507.749C113.485 500.228 120.93 492.503 128.451 484.855C134.27 482.593 137.649 477.384 142.02 473.395C149.821 466.306 156.58 464.984 161.713 470.041C167.074 475.352 165.677 482.466 157.672 490.216C150.456 497.204 143.189 504.141 135.947 511.103V511.129Z" fill="#F6A6A7"/>
<path d="M226.735 171.908C226.887 127.085 263.376 90.4435 307.716 90.5451C352.717 90.6468 389.434 127.517 389.333 172.492C389.231 217.366 352.107 254.083 307.132 253.778C262.537 253.473 226.582 216.858 226.735 171.908ZM360.874 172.543C361.001 143.042 337.268 118.953 307.97 118.928C278.901 118.877 254.66 143.093 254.508 172.314C254.355 200.748 278.571 225.091 307.259 225.345C336.709 225.599 360.747 201.942 360.874 172.543Z" fill="#49789A"/>
<path d="M345.6 171.782C345.753 192.974 328.906 210.05 307.816 210.075C287.539 210.075 270.26 193.05 269.828 172.596C269.396 152.191 287.412 134.049 307.917 134.201C328.55 134.354 345.448 151.2 345.6 171.782Z" fill="#49789A"/>
</svg>
