<svg width="814" height="656" viewBox="0 0 814 656" fill="none" xmlns="http://www.w3.org/2000/svg">
<path d="M406.746 656C288.168 656 169.589 656 51.0101 656C18.7241 656 0 637.429 0 605.34C0 420.352 0 235.364 0 50.3757C0 18.7679 18.7897 0 50.4632 0C287.905 0 525.325 0 762.767 0C794.506 0 813.361 18.7022 813.361 50.2226C813.361 235.495 813.361 420.746 813.361 606.018C813.361 637.013 794.353 655.978 763.314 656C644.451 656 525.609 656 406.746 656ZM407.096 104.951C283.027 104.951 158.958 105.017 34.889 104.754C27.5831 104.754 26.0738 106.57 26.0738 113.679C26.2925 277.121 26.2487 440.563 26.2487 604.006C26.2487 623.08 32.8328 629.751 51.6882 629.751C288.364 629.751 525.019 629.751 761.695 629.751C780.528 629.751 787.134 623.08 787.134 604.006C787.134 440.563 787.091 277.121 787.309 113.679C787.309 106.592 785.822 104.733 778.494 104.754C654.688 105.017 530.903 104.951 407.096 104.951ZM405.871 78.7244C529.94 78.7244 654.01 78.6806 778.057 78.8775C784.947 78.8775 788.162 77.6525 787.244 70.0185C786.566 64.3532 787.113 58.5566 787.113 52.8256C787.113 32.4828 780.944 26.2487 760.82 26.2487C524.713 26.2487 288.605 26.2487 52.5194 26.2487C50.6163 26.2487 48.6914 26.205 46.7884 26.2487C34.4296 26.6862 26.5769 34.6046 26.2925 47.0946C26.1394 53.3725 26.2706 59.6722 26.2706 65.95C26.2706 74.4662 30.3902 78.7244 38.6294 78.7244C161.058 78.7244 283.486 78.7244 405.893 78.7244H405.871Z" fill="#4A80AA"/>
<path d="M407.093 104.951C530.899 104.951 654.684 105.016 778.491 104.754C785.797 104.754 787.306 106.591 787.306 113.678C787.087 277.121 787.131 440.563 787.131 604.005C787.131 623.057 780.525 629.751 761.691 629.751C525.015 629.751 288.361 629.751 51.6847 629.751C32.8294 629.751 26.2453 623.079 26.2453 604.005C26.2453 440.563 26.2891 277.121 26.0703 113.678C26.0703 106.591 27.5796 104.754 34.8855 104.754C158.955 105.016 283.024 104.951 407.093 104.951ZM406.655 537.924C449.288 537.924 491.898 537.968 534.53 537.924C582.631 537.858 616.514 504.019 616.558 455.918C616.623 396.903 616.623 337.865 616.558 278.849C616.514 230.726 582.653 196.865 534.574 196.821C449.331 196.778 364.067 196.778 278.824 196.821C230.767 196.843 196.84 230.77 196.775 278.805C196.709 337.821 196.709 396.859 196.775 455.875C196.818 503.932 230.745 537.858 278.78 537.924C321.412 537.99 364.023 537.924 406.655 537.924Z" fill="#B1E4F9"/>
<path d="M405.872 78.7235C283.444 78.7235 161.015 78.7235 38.6085 78.7235C30.3693 78.7235 26.2498 74.4654 26.2498 65.9492C26.2498 59.6713 26.1404 53.3716 26.2716 47.0938C26.556 34.6038 34.4087 26.6854 46.7675 26.2479C48.6706 26.1823 50.5955 26.2479 52.4985 26.2479C288.606 26.2479 524.714 26.2479 760.799 26.2479C780.945 26.2479 787.092 32.482 787.092 52.8248C787.092 58.5558 786.545 64.3742 787.223 70.0177C788.142 77.6517 784.926 78.8767 778.036 78.8767C653.967 78.6798 529.92 78.7235 405.85 78.7235H405.872ZM59.0388 65.5992C60.9419 65.5992 62.8668 65.6648 64.7698 65.5992C73.1913 65.2492 78.5941 60.2182 78.7035 52.6935C78.8347 44.8627 73.235 39.6785 64.3542 39.3723C62.7136 39.3067 61.0731 39.3723 59.4544 39.3723C45.4332 39.3723 39.2429 43.4846 39.396 52.7154C39.5272 61.7494 45.4551 65.6429 59.0607 65.6429L59.0388 65.5992ZM111.799 65.621C125.142 65.621 131.223 61.465 131.157 52.3873C131.092 43.3315 125.12 39.3504 111.602 39.3504C97.9088 39.3504 92.0466 43.1565 91.8279 52.1686C91.6091 61.4212 97.8651 65.621 111.777 65.621H111.799ZM164.121 65.621C164.668 65.621 165.215 65.621 165.762 65.621C177.683 65.5992 183.611 61.2681 183.633 52.5404C183.677 43.769 177.749 39.3723 165.871 39.3504C165.324 39.3504 164.778 39.3504 164.231 39.3504C150.319 39.3504 144.063 43.5721 144.304 52.8248C144.544 61.8368 150.384 65.621 164.099 65.621H164.121Z" fill="#DAF1F4"/>
<path d="M406.66 537.923C364.028 537.923 321.418 537.967 278.785 537.923C230.75 537.858 196.845 503.931 196.78 455.874C196.714 396.858 196.714 337.82 196.78 278.804C196.823 230.791 230.772 196.865 278.829 196.821C364.072 196.777 449.336 196.777 534.579 196.821C582.658 196.843 616.519 230.726 616.563 278.848C616.628 337.864 616.628 396.902 616.563 455.918C616.519 504.019 582.636 537.858 534.535 537.923C491.903 537.989 449.293 537.923 406.66 537.923ZM406.704 511.675C449.861 511.675 493.019 511.718 536.176 511.675C567.478 511.631 590.292 488.707 590.336 457.252C590.402 397.427 590.402 337.602 590.336 277.798C590.314 245.84 567.587 223.113 535.673 223.092C449.643 223.048 363.591 223.048 277.56 223.092C245.668 223.092 223.05 245.84 223.028 277.864C222.985 337.405 222.985 396.968 223.028 456.509C223.028 489.035 245.602 511.653 278.041 511.675C320.914 511.718 363.809 511.675 406.682 511.675H406.704Z" fill="#4A80AA"/>
<path d="M59.0346 65.6221C45.429 65.6221 39.5231 61.7285 39.37 52.6946C39.2168 43.4638 45.4072 39.3515 59.4284 39.3515C61.0689 39.3515 62.7095 39.3077 64.3281 39.3515C73.209 39.6577 78.7868 44.8637 78.6775 52.6727C78.5681 60.1974 73.1652 65.2284 64.7438 65.5784C62.8407 65.6658 60.9377 65.5784 59.0128 65.5784L59.0346 65.6221Z" fill="#4A80AA"/>
<path d="M111.798 65.6232C97.8865 65.6232 91.6305 61.4015 91.8493 52.1707C92.068 43.1586 97.9302 39.3525 111.623 39.3525C125.12 39.3525 131.113 43.3336 131.179 52.3894C131.244 61.4671 125.163 65.6232 111.82 65.6232H111.798Z" fill="#4A80AA"/>
<path d="M164.119 65.6232C150.404 65.6232 144.542 61.839 144.323 52.8269C144.082 43.5742 150.338 39.3525 164.25 39.3525C164.797 39.3525 165.344 39.3525 165.891 39.3525C177.768 39.3744 183.696 43.7711 183.652 52.5425C183.609 61.2702 177.703 65.6013 165.781 65.6232C165.235 65.6232 164.688 65.6232 164.141 65.6232H164.119Z" fill="#4A80AA"/>
<path d="M406.702 511.675C363.829 511.675 320.934 511.696 278.061 511.675C245.622 511.653 223.048 489.013 223.048 456.508C223.005 396.968 223.005 337.405 223.048 277.864C223.07 245.84 245.688 223.091 277.58 223.091C363.61 223.048 449.663 223.048 535.693 223.091C567.585 223.091 590.312 245.84 590.356 277.798C590.422 337.623 590.422 397.449 590.356 457.252C590.312 488.707 567.498 511.631 536.196 511.675C493.039 511.74 449.881 511.675 406.724 511.675H406.702ZM301.729 366.76C301.729 396.268 301.707 425.797 301.729 455.305C301.729 470.727 310.326 476.107 324.15 469.217C383.035 439.84 441.854 410.354 500.76 381C506.732 378.025 511.697 374.59 511.588 367.131C511.478 360.11 506.841 356.741 501.11 353.876C441.963 324.412 382.903 294.794 323.756 265.308C310.501 258.702 301.751 264.193 301.729 279.023C301.685 308.269 301.729 337.514 301.729 366.76Z" fill="white"/>
<path d="M298.02 366.928C298.02 336.64 297.975 306.351 298.02 276.063C298.043 260.727 307.104 255.018 320.833 261.859C382.066 292.397 443.254 323.07 504.51 353.585C510.445 356.552 515.248 360.041 515.361 367.313C515.474 375.038 510.332 378.594 504.147 381.675C443.141 412.077 382.224 442.592 321.24 473.038C306.946 480.174 298.043 474.601 298.02 458.63C297.975 428.07 298.02 397.488 298.02 366.928ZM325.545 440.553C374.182 416.2 422.118 392.209 471.458 367.517C421.801 342.688 373.956 318.766 325.545 294.549V440.553Z" fill="#4A80AA"/>
<path d="M325.543 440.551V294.547C373.954 318.764 421.799 342.686 471.456 367.515C422.116 392.208 374.181 416.198 325.543 440.551Z" fill="#4A80AA"/>
</svg>
