<svg width="730" height="661" viewBox="0 0 730 661" fill="none" xmlns="http://www.w3.org/2000/svg">
<path d="M143.669 361.558C117.389 338.986 91.1078 316.432 64.8081 293.879C43.2054 275.357 21.6027 256.854 0 238.351C0 236.925 0 235.498 0 234.072C9.33708 226.351 16.2971 216.463 24.1509 207.411C82.9688 139.598 141.635 71.6716 200.262 3.7258C203.305 0.20776 205.492 -1.76995 209.961 2.16645C232.02 21.6393 254.326 40.8459 276.537 60.1476C268.113 63.8939 259.651 67.6021 251.245 71.4054C230.746 80.6854 210.246 89.9654 189.765 99.3025C172.289 107.27 154.775 115.124 137.432 123.358C127.962 127.846 126.041 133 130.206 142.261C146.332 178.126 162.667 213.896 178.907 249.723C185.353 263.947 191.743 278.209 198.17 292.453C192.713 292.567 187.274 292.586 181.816 292.795C159.719 293.689 144.145 309.643 143.878 331.665C143.764 341.629 143.726 351.594 143.669 361.539V361.558Z" fill="#016694"/>
<path d="M730 440.78C727.053 445.363 727.015 450.878 725.113 455.842C714.274 483.929 694.42 502.185 665.706 510.951C657.338 513.195 648.857 514.26 640.186 513.499C640.756 513.081 641.27 512.377 641.878 512.301C683.296 507.186 718.933 465.635 714.483 419.52C711.84 392.098 699.859 370.838 677.781 354.579C666.39 346.193 653.155 342.941 640.262 338.529C681.603 336.209 720.473 367.434 728.555 409.46C728.764 410.563 728.479 411.875 730 412.294V440.799V440.78Z" fill="#24B437"/>
<path d="M466.247 97.1896C487.108 97.1896 507.95 97.1516 528.811 97.2277C531.284 97.2277 534.098 96.2578 536.133 98.7109C536.133 117.899 536.133 137.086 536.209 156.274C536.285 172.286 543.854 179.797 559.732 179.835C573.234 179.854 586.736 179.873 600.237 179.892C600.237 236.371 600.237 292.831 600.237 349.31C587.801 356.213 577.874 365.911 569.374 377.169C566.293 377.074 563.231 376.922 560.151 376.922C500.933 376.922 441.735 376.922 382.518 376.922C377.555 376.922 372.591 376.922 367.761 375.533C362.589 373.632 357.721 371.046 353.765 367.261C336.764 351.04 319.44 335.143 303.314 318.028C303.391 314.947 303.524 311.866 303.524 308.786C303.524 241.848 303.524 174.929 303.524 107.991C303.524 100.917 306.978 97.3798 313.888 97.3798C364.681 97.3227 415.473 97.2657 466.266 97.1896H466.247ZM462.007 308.158C426.636 308.158 391.285 308.196 355.914 308.12C350.513 308.12 345.873 309.033 344.029 314.871C341.538 322.706 346.577 328.182 356.332 328.182C426.123 328.201 495.894 328.182 565.684 328.182C573.424 328.182 578.654 324.189 578.768 318.313C578.882 312.247 573.5 308.158 565.266 308.158C530.846 308.158 496.427 308.158 462.026 308.158H462.007ZM461.417 208.322C426.275 208.322 391.132 208.322 355.971 208.322C347.261 208.322 343.477 211.498 343.591 218.458C343.705 224.448 348.421 228.327 355.8 228.327C425.628 228.327 495.438 228.346 565.266 228.327C573.538 228.327 579.034 224.029 578.73 217.963C578.444 212.106 573.272 208.322 565.437 208.322C530.77 208.322 496.084 208.322 461.417 208.322ZM461.531 258.24C426.389 258.24 391.228 258.24 356.085 258.24C347.319 258.24 343.534 261.359 343.61 268.281C343.667 274.499 348.44 278.245 356.446 278.245C426.028 278.245 495.609 278.245 565.19 278.245C573.538 278.245 578.958 274.043 578.749 267.957C578.54 262.081 573.348 258.221 565.532 258.221C530.865 258.221 496.179 258.221 461.512 258.221L461.531 258.24ZM421.844 158.423C399.271 158.423 376.718 158.423 354.145 158.423C347.984 158.423 344.162 161.237 343.686 167.57C343.192 174.092 347.49 176.792 352.928 178.314C354.031 178.618 355.286 178.447 356.484 178.447C400.184 178.447 443.903 178.485 487.603 178.428C495.59 178.428 499.032 175.195 499.127 168.14C499.203 161.142 496.008 158.442 487.432 158.423C465.582 158.404 443.732 158.423 421.863 158.423H421.844Z" fill="#E9F5FE"/>
<path d="M283.784 65.9104C305.463 57.5242 326.21 47.0461 347.375 37.5379C370.518 27.1359 393.566 16.5247 416.614 5.95155C420.398 4.20204 423.536 3.08007 425.837 8.21451C437.818 35.0467 449.988 61.8029 462.083 88.597C411.556 88.597 361.01 88.6351 310.483 88.6351C297.761 88.6351 293.73 92.7426 293.73 105.693C293.692 173.296 293.673 240.919 293.635 308.522C279.658 293.252 261.915 290.4 242.5 292.929C231.109 292.777 219.718 292.606 208.327 292.453C200.435 274.958 192.6 257.463 184.671 239.987C169.667 206.993 154.663 173.981 139.506 141.063C137.186 136.043 137.415 133.248 143.177 130.68C174.782 116.608 206.273 102.289 237.631 87.7033C253.054 80.5341 269.008 74.4298 283.784 65.9104Z" fill="#60B6FE"/>
<path d="M569.35 377.189C577.85 365.912 587.777 356.233 600.214 349.33C606.413 346.8 612.631 344.271 618.831 341.742C625.886 340.069 632.979 338.795 640.243 338.509C653.136 342.921 666.372 346.173 677.763 354.559C699.841 370.818 711.821 392.079 714.464 419.5C718.914 465.596 683.277 507.166 641.86 512.282C641.251 512.358 640.738 513.08 640.167 513.48C639.673 513.67 639.178 513.86 638.665 514.05C637.505 513.86 636.326 513.613 635.147 513.518C589.222 509.41 554.175 470.826 554.707 424.882C554.916 407.577 560.507 391.888 569.331 377.189H569.35ZM697.483 395.197C697.578 390.234 695.448 387.001 691.359 385.271C686.605 383.255 682.631 384.871 679.132 388.37C662.549 404.991 645.758 421.421 629.442 438.289C625.182 442.7 622.767 442.51 619.021 438.079C615.065 433.382 610.463 429.218 606.014 424.939C600.442 419.576 593.995 419.158 589.754 423.703C585.723 428.001 586.255 434.219 591.409 439.468C599.377 447.588 607.421 455.651 615.56 463.599C621.759 469.647 626.722 469.799 632.827 463.752C653.041 443.727 673.123 423.551 693.242 403.412C695.619 401.016 697.73 398.468 697.502 395.197H697.483Z" fill="#26C63C"/>
<path d="M293.609 308.521C293.647 240.918 293.666 173.295 293.704 105.691C293.704 92.7413 297.755 88.6337 310.458 88.6337C360.985 88.6337 411.53 88.6147 462.057 88.5957C464.149 91.1249 465.29 94.1105 466.222 97.1911C415.429 97.2482 364.636 97.3052 313.843 97.3813C306.934 97.3813 303.479 100.918 303.479 107.992C303.479 174.93 303.479 241.849 303.479 308.787C303.479 311.868 303.346 314.949 303.27 318.029C300.056 314.853 296.823 311.697 293.609 308.521Z" fill="#5AA7E6"/>
<path d="M600.233 179.914C586.732 179.914 573.23 179.876 559.728 179.857C543.85 179.819 536.281 172.307 536.205 156.295C536.129 137.108 536.148 117.92 536.129 98.7326C539.21 98.6375 540.598 101.167 542.385 102.935C565.528 126.002 588.614 149.126 611.719 172.231C613.868 174.38 616.53 176.244 616.283 179.857C610.94 179.876 605.596 179.895 600.252 179.914H600.233Z" fill="#BFC8D0"/>
<path d="M283.787 65.9094C268.992 74.4288 253.056 80.5141 237.634 87.7023C206.276 102.288 174.784 116.607 143.179 130.679C137.417 133.247 137.189 136.042 139.509 141.062C154.665 173.999 169.669 206.992 184.673 239.986C192.603 257.443 200.457 274.957 208.329 292.452C204.944 292.452 201.578 292.452 198.194 292.452C191.766 278.209 185.376 263.947 178.93 249.722C162.69 213.895 146.355 178.126 130.229 142.26C126.064 132.98 127.985 127.846 137.455 123.358C154.798 115.124 172.312 107.27 189.788 99.3023C210.269 89.9653 230.769 80.6662 251.268 71.4052C259.674 67.6019 268.117 63.8937 276.56 60.1475C278.975 62.0681 281.391 63.9888 283.806 65.9285L283.787 65.9094Z" fill="#025D87"/>
<path d="M600.232 179.913C605.576 179.894 610.919 179.875 616.263 179.856C620.675 181.339 618.678 185.066 618.678 187.729C618.83 239.073 618.811 290.399 618.83 341.743C612.631 344.272 606.412 346.801 600.213 349.331C600.213 292.852 600.213 236.392 600.213 179.913H600.232Z" fill="#D2DCE5"/>
<path d="M198.171 292.451C201.556 292.451 204.922 292.451 208.307 292.451C219.698 292.603 231.089 292.774 242.479 292.927C249.249 295.19 255.525 298.46 260.83 303.214C268.741 310.327 276.519 317.591 284.106 325.045C296.467 337.159 308.79 349.31 320.808 361.747C333.929 375.325 349.504 379.775 367.741 375.553C372.571 376.96 377.534 376.941 382.498 376.941C441.715 376.941 500.913 376.941 560.13 376.941C563.211 376.941 566.272 377.093 569.353 377.189C560.529 391.869 554.939 407.558 554.729 424.882C554.197 470.825 589.244 509.41 635.169 513.517C636.348 513.632 637.508 513.879 638.687 514.05C638.706 547.31 638.003 580.588 639.048 613.829C639.638 632.332 623.797 652.471 608.755 656.863C607.082 657.358 604.762 657.339 604.553 659.963C598.619 660.001 592.686 660.039 586.753 660.039C455.597 660.039 324.44 660.039 193.284 660.039C168.6 660.039 150.326 645.986 144.754 623.071C143.67 618.602 143.917 614.095 143.917 609.608C143.879 530.024 143.898 450.421 143.879 370.837C143.879 367.756 143.746 364.657 143.67 361.576C143.746 351.611 143.765 341.647 143.879 331.701C144.145 309.68 159.72 293.706 181.817 292.832C187.256 292.622 192.713 292.603 198.171 292.489V292.451ZM403.625 606.147C467.045 606.147 530.464 606.147 593.903 606.147C596.033 606.147 598.22 606.356 600.312 606.052C605.903 605.253 609.592 602.001 610.086 596.391C610.581 590.724 607.576 587.111 601.928 585.533C599.076 584.734 596.299 584.848 593.466 584.848C467.33 584.829 341.194 584.848 215.058 584.848C212.928 584.848 210.722 584.62 208.649 585.019C199.749 586.674 196.06 595.992 201.556 602.705C204.485 606.28 208.535 606.185 212.624 606.185C276.291 606.166 339.939 606.185 403.606 606.185L403.625 606.147ZM259.423 514.925C243.259 514.925 227.114 514.868 210.95 514.944C203.781 514.982 198.97 518.975 198.437 525.022C198.019 529.872 204.18 536.128 210.285 536.147C242.593 536.299 274.902 536.28 307.211 536.147C311.49 536.128 315.636 534.873 317.994 530.499C322.196 522.702 317.062 515.077 307.154 514.982C291.238 514.83 275.321 514.944 259.404 514.944L259.423 514.925Z" fill="#FEB957"/>
<path d="M604.546 659.945C604.775 657.321 607.095 657.34 608.749 656.846C623.791 652.453 639.632 632.315 639.042 613.812C637.977 580.59 638.7 547.292 638.681 514.032C639.175 513.842 639.67 513.652 640.183 513.462C648.855 514.222 657.336 513.158 665.703 510.914C665.703 543.679 665.722 576.444 665.703 609.191C665.703 640.454 645.888 660.155 614.492 660.155C611.164 660.155 607.855 659.983 604.527 659.907L604.546 659.945Z" fill="#E6A84F"/>
<path d="M462.002 308.16C496.421 308.16 530.841 308.16 565.242 308.16C573.476 308.16 578.858 312.249 578.744 318.315C578.629 324.191 573.4 328.185 565.66 328.185C495.87 328.185 426.099 328.185 356.308 328.185C346.553 328.185 341.513 322.708 344.004 314.873C345.868 309.035 350.489 308.103 355.89 308.122C391.26 308.198 426.612 308.16 461.983 308.16H462.002Z" fill="#BDC6CE"/>
<path d="M461.418 208.323C496.085 208.323 530.771 208.323 565.438 208.323C573.292 208.323 578.465 212.107 578.731 217.964C579.016 224.03 573.539 228.328 565.267 228.328C495.439 228.328 425.629 228.328 355.801 228.328C348.423 228.328 343.706 224.429 343.592 218.458C343.478 211.517 347.263 208.342 355.972 208.323C391.114 208.285 426.257 208.323 461.418 208.323Z" fill="#BDC6CE"/>
<path d="M461.528 258.242C496.195 258.242 530.881 258.242 565.548 258.242C573.345 258.242 578.555 262.103 578.765 267.979C578.993 274.064 573.554 278.267 565.206 278.267C495.625 278.267 426.043 278.267 356.462 278.267C348.456 278.267 343.683 274.52 343.626 268.302C343.55 261.38 347.334 258.261 356.101 258.261C391.243 258.223 426.405 258.261 461.547 258.261L461.528 258.242Z" fill="#BDC6CE"/>
<path d="M421.84 158.424C443.69 158.424 465.54 158.405 487.409 158.424C495.985 158.424 499.18 161.144 499.104 168.142C499.028 175.197 495.586 178.43 487.58 178.43C443.88 178.487 400.161 178.449 356.462 178.449C355.283 178.449 354.028 178.62 352.906 178.316C347.486 176.794 343.169 174.075 343.664 167.571C344.139 161.239 347.961 158.424 354.123 158.424C376.695 158.424 399.249 158.424 421.821 158.424H421.84Z" fill="#BDC6CE"/>
<path d="M367.742 375.554C349.505 379.775 333.931 375.326 320.809 361.748C308.791 349.311 296.449 337.16 284.107 325.046C276.52 317.592 268.742 310.327 260.831 303.215C255.526 298.461 249.25 295.19 242.48 292.927C261.877 290.398 279.639 293.251 293.616 308.521C296.829 311.697 300.062 314.853 303.276 318.029C319.402 335.144 336.745 351.042 353.727 367.263C357.701 371.047 362.55 373.652 367.723 375.535L367.742 375.554Z" fill="#E6A84F"/>
<path d="M697.489 395.199C697.737 398.47 695.626 401.037 693.23 403.414C673.11 423.552 653.048 443.729 632.814 463.753C626.71 469.8 621.747 469.648 615.547 463.601C607.408 455.652 599.364 447.589 591.397 439.469C586.243 434.202 585.711 428.002 589.742 423.704C594.002 419.16 600.448 419.597 606.001 424.941C610.451 429.219 615.053 433.384 619.008 438.081C622.755 442.531 625.17 442.721 629.429 438.29C645.746 421.403 662.537 404.992 679.119 388.372C682.599 384.873 686.593 383.276 691.347 385.272C695.436 387.003 697.584 390.217 697.47 395.199H697.489Z" fill="#E6F4FB"/>
<path d="M403.625 606.148C339.958 606.148 276.309 606.148 212.642 606.148C208.554 606.148 204.503 606.243 201.575 602.668C196.079 595.955 199.768 586.618 208.668 584.983C210.741 584.603 212.928 584.812 215.077 584.812C341.213 584.812 467.349 584.812 593.485 584.812C596.318 584.812 599.095 584.717 601.947 585.496C607.595 587.075 610.6 590.669 610.105 596.355C609.611 601.965 605.903 605.235 600.331 606.015C598.239 606.319 596.071 606.11 593.922 606.11C530.502 606.11 467.083 606.11 403.644 606.11L403.625 606.148Z" fill="#D09746"/>
<path d="M259.419 514.927C275.335 514.927 291.252 514.813 307.169 514.965C317.076 515.06 322.211 522.686 318.008 530.482C315.65 534.856 311.505 536.111 307.226 536.13C274.917 536.282 242.608 536.301 210.299 536.13C204.195 536.092 198.033 529.836 198.452 525.006C198.965 518.958 203.776 514.965 210.965 514.927C227.129 514.851 243.274 514.908 259.438 514.908L259.419 514.927Z" fill="#D09746"/>
</svg>
