<svg width="800" height="724" viewBox="0 0 800 724" fill="none" xmlns="http://www.w3.org/2000/svg">
<path d="M157.446 396.228C128.645 371.491 99.8441 346.775 71.0225 322.059C47.3483 301.761 23.6742 281.483 0 261.206C0 259.643 0 258.08 0 256.517C10.2324 248.056 17.8598 237.219 26.4667 227.3C90.9246 152.984 155.216 78.5441 219.465 4.08307C222.8 0.227682 225.196 -1.93967 230.094 2.37419C254.268 23.7143 278.713 44.7626 303.054 65.9151C293.822 70.0206 284.548 74.0844 275.337 78.2524C252.872 88.4223 230.406 98.5921 207.962 108.825C188.81 117.556 169.616 126.163 150.61 135.187C140.232 140.105 138.127 145.753 142.691 155.902C160.363 195.206 178.265 234.406 196.062 273.668C203.127 289.257 210.129 304.887 217.173 320.496C211.192 320.621 205.232 320.642 199.251 320.871C175.035 321.85 157.967 339.335 157.675 363.468C157.55 374.388 157.508 385.308 157.446 396.207V396.228Z" fill="#016694"/>
<path d="M799.997 483.047C796.767 488.069 796.725 494.113 794.641 499.552C782.763 530.332 761.006 550.339 729.538 559.946C720.368 562.405 711.073 563.572 701.57 562.739C702.196 562.28 702.758 561.509 703.425 561.426C748.814 555.82 787.868 510.284 782.992 459.748C780.095 429.696 766.966 406.397 742.771 388.579C730.288 379.389 715.783 375.825 701.654 370.99C746.96 368.448 789.556 402.667 798.413 448.723C798.643 449.932 798.33 451.37 799.997 451.828V483.067V483.047Z" fill="#24B437"/>
<path d="M510.955 106.509C533.816 106.509 556.657 106.468 579.518 106.551C582.227 106.551 585.312 105.488 587.542 108.176C587.542 129.204 587.542 150.231 587.625 171.259C587.708 188.806 596.003 197.038 613.404 197.08C628.2 197.1 642.997 197.121 657.793 197.142C657.793 259.037 657.793 320.91 657.793 382.805C644.164 390.37 633.285 400.998 623.97 413.336C620.594 413.231 617.239 413.065 613.862 413.065C548.967 413.065 484.092 413.065 419.197 413.065C413.758 413.065 408.318 413.065 403.025 411.543C397.356 409.459 392.021 406.625 387.687 402.478C369.056 384.702 350.071 367.279 332.398 348.523C332.482 345.147 332.628 341.771 332.628 338.395C332.628 265.039 332.628 191.703 332.628 118.346C332.628 110.594 336.414 106.718 343.985 106.718C399.649 106.655 455.312 106.593 510.976 106.509H510.955ZM506.308 337.707C467.545 337.707 428.804 337.749 390.042 337.666C384.123 337.666 379.038 338.666 377.017 345.064C374.287 353.65 379.809 359.652 390.5 359.652C466.983 359.673 543.444 359.652 619.927 359.652C628.409 359.652 634.14 355.276 634.265 348.836C634.39 342.188 628.492 337.707 619.468 337.707C581.748 337.707 544.028 337.707 506.328 337.707H506.308ZM505.662 228.298C467.149 228.298 428.637 228.298 390.104 228.298C380.56 228.298 376.412 231.778 376.537 239.406C376.662 245.97 381.831 250.221 389.917 250.221C466.441 250.221 542.944 250.242 619.468 250.221C628.534 250.221 634.557 245.512 634.223 238.864C633.91 232.445 628.242 228.298 619.656 228.298C581.665 228.298 543.653 228.298 505.662 228.298ZM505.787 283.003C467.274 283.003 428.741 283.003 390.229 283.003C380.622 283.003 376.475 286.42 376.558 294.006C376.621 300.821 381.852 304.926 390.625 304.926C466.878 304.926 543.132 304.926 619.385 304.926C628.534 304.926 634.473 300.321 634.244 293.652C634.015 287.212 628.325 282.982 619.76 282.982C581.769 282.982 543.757 282.982 505.766 282.982L505.787 283.003ZM462.294 173.614C437.557 173.614 412.841 173.614 388.104 173.614C381.351 173.614 377.163 176.698 376.642 183.638C376.1 190.786 380.81 193.745 386.77 195.412C387.979 195.746 389.354 195.558 390.667 195.558C438.557 195.558 486.468 195.6 534.358 195.537C543.111 195.537 546.883 191.995 546.987 184.263C547.071 176.594 543.569 173.635 534.171 173.614C510.226 173.593 486.28 173.614 462.315 173.614H462.294Z" fill="#E9F5FE"/>
<path d="M310.997 72.2303C334.755 63.0399 357.491 51.5571 380.686 41.1371C406.048 29.7377 431.306 18.109 456.564 6.52202C460.711 4.60475 464.15 3.37519 466.671 9.00197C479.801 38.4071 493.138 67.7289 506.392 97.0923C451.021 97.0923 395.628 97.134 340.256 97.134C326.315 97.134 321.896 101.635 321.896 115.827C321.855 189.913 321.834 264.02 321.792 338.106C306.475 321.372 287.031 318.246 265.754 321.017C253.271 320.851 240.787 320.663 228.304 320.496C219.656 301.324 211.07 282.151 202.379 262.999C185.937 226.842 169.494 190.664 152.885 154.59C150.342 149.088 150.592 146.024 156.907 143.211C191.543 127.79 226.054 112.097 260.419 96.1129C277.32 88.2562 294.805 81.5666 310.997 72.2303Z" fill="#60B6FE"/>
<path d="M623.944 413.357C633.259 400.999 644.138 390.392 657.767 382.827C664.561 380.055 671.376 377.283 678.169 374.512C685.901 372.678 693.674 371.281 701.635 370.969C715.765 375.804 730.269 379.367 742.752 388.558C766.948 406.376 780.077 429.675 782.973 459.726C787.85 510.242 748.796 555.798 703.407 561.404C702.74 561.487 702.177 562.279 701.552 562.717C701.01 562.925 700.468 563.134 699.905 563.342C698.634 563.134 697.342 562.863 696.05 562.759C645.722 558.257 607.314 515.973 607.897 465.624C608.126 446.659 614.253 429.466 623.923 413.357H623.944ZM764.363 433.093C764.468 427.653 762.133 424.111 757.653 422.214C752.443 420.005 748.087 421.776 744.253 425.611C726.08 443.825 707.679 461.831 689.798 480.316C685.13 485.151 682.483 484.942 678.378 480.087C674.043 474.939 669 470.375 664.123 465.686C658.017 459.809 650.952 459.351 646.305 464.332C641.887 469.041 642.471 475.856 648.118 481.608C656.85 490.507 665.665 499.343 674.585 508.054C681.379 514.681 686.818 514.848 693.508 508.221C715.66 486.276 737.667 464.165 759.716 442.095C762.321 439.47 764.634 436.677 764.384 433.093H764.363Z" fill="#26C63C"/>
<path d="M321.766 338.105C321.807 264.019 321.828 189.912 321.87 115.826C321.87 101.634 326.309 97.1325 340.23 97.1325C395.601 97.1325 450.994 97.1117 506.366 97.0908C508.658 99.8625 509.908 103.134 510.93 106.51C455.266 106.573 399.603 106.636 343.939 106.719C336.367 106.719 332.582 110.595 332.582 118.348C332.582 191.704 332.582 265.04 332.582 338.396C332.582 341.772 332.436 345.148 332.352 348.525C328.83 345.044 325.288 341.585 321.766 338.105Z" fill="#5AA7E6"/>
<path d="M657.791 197.166C642.994 197.166 628.198 197.124 613.401 197.103C596 197.062 587.706 188.83 587.622 171.283C587.539 150.255 587.56 129.228 587.539 108.2C590.915 108.096 592.436 110.868 594.395 112.806C619.758 138.085 645.057 163.426 670.378 188.746C672.733 191.101 675.65 193.144 675.379 197.103C669.523 197.124 663.667 197.145 657.811 197.166H657.791Z" fill="#BFC8D0"/>
<path d="M310.998 72.2295C294.784 81.5658 277.321 88.2346 260.419 96.1121C226.054 112.096 191.544 127.789 156.908 143.21C150.593 146.024 150.343 149.087 152.885 154.589C169.495 190.684 185.938 226.841 202.38 262.998C211.071 282.129 219.677 301.323 228.305 320.496C224.596 320.496 220.907 320.496 217.197 320.496C210.154 304.886 203.151 289.257 196.087 273.668C178.289 234.406 160.388 195.206 142.716 155.902C138.152 145.732 140.256 140.105 150.635 135.187C169.641 126.163 188.834 117.556 207.986 108.824C230.431 98.592 252.896 88.4013 275.362 78.2523C284.573 74.0843 293.826 70.0205 303.079 65.915C305.725 68.0199 308.372 70.1247 311.019 72.2504L310.998 72.2295Z" fill="#025D87"/>
<path d="M657.786 197.165C663.643 197.144 669.499 197.123 675.355 197.103C680.189 198.728 678.001 202.813 678.001 205.73C678.168 261.998 678.147 318.245 678.168 374.513C671.374 377.285 664.559 380.056 657.766 382.828C657.766 320.933 657.766 259.06 657.766 197.165H657.786Z" fill="#D2DCE5"/>
<path d="M217.173 320.494C220.882 320.494 224.571 320.494 228.28 320.494C240.763 320.661 253.246 320.848 265.73 321.015C273.149 323.495 280.026 327.08 285.84 332.29C294.51 340.084 303.033 348.045 311.348 356.214C324.894 369.489 338.398 382.806 351.569 396.435C365.949 411.315 383.017 416.191 403.002 411.565C408.296 413.107 413.735 413.086 419.174 413.086C484.069 413.086 548.944 413.086 613.84 413.086C617.216 413.086 620.571 413.253 623.947 413.357C614.277 429.445 608.15 446.638 607.921 465.623C607.338 515.973 645.746 558.257 696.074 562.758C697.366 562.883 698.637 563.154 699.929 563.342C699.95 599.791 699.179 636.261 700.325 672.689C700.971 692.966 683.612 715.036 667.127 719.85C665.293 720.392 662.751 720.371 662.522 723.247C656.02 723.288 649.518 723.33 643.016 723.33C499.283 723.33 355.55 723.33 211.817 723.33C184.766 723.33 164.739 707.929 158.633 682.817C157.445 677.92 157.716 672.981 157.716 668.063C157.675 580.847 157.695 493.611 157.675 406.396C157.675 403.02 157.529 399.623 157.445 396.247C157.529 385.327 157.55 374.407 157.675 363.508C157.966 339.375 175.034 321.87 199.25 320.911C205.21 320.682 211.191 320.661 217.173 320.536V320.494ZM442.327 664.27C511.828 664.27 581.329 664.27 650.851 664.27C653.185 664.27 655.582 664.499 657.874 664.165C664.001 663.29 668.044 659.727 668.586 653.579C669.128 647.368 665.835 643.409 659.646 641.679C656.52 640.804 653.477 640.929 650.372 640.929C512.141 640.908 373.91 640.929 235.678 640.929C233.344 640.929 230.927 640.679 228.655 641.117C218.902 642.93 214.859 653.141 220.882 660.498C224.091 664.416 228.53 664.311 233.011 664.311C302.783 664.29 372.534 664.311 442.306 664.311L442.327 664.27ZM284.298 564.3C266.584 564.3 248.891 564.238 231.177 564.321C223.32 564.363 218.048 568.739 217.464 575.366C217.006 580.681 223.758 587.537 230.448 587.558C265.855 587.725 301.262 587.704 336.669 587.558C341.358 587.537 345.901 586.162 348.485 581.368C353.091 572.824 347.464 564.467 336.606 564.363C319.163 564.196 301.72 564.321 284.277 564.321L284.298 564.3Z" fill="#FEB957"/>
<path d="M662.517 723.227C662.767 720.351 665.309 720.372 667.123 719.83C683.607 715.016 700.967 692.946 700.321 672.669C699.154 636.262 699.945 599.771 699.925 563.322C700.466 563.114 701.008 562.905 701.571 562.697C711.074 563.53 720.369 562.363 729.538 559.904C729.538 595.811 729.559 631.719 729.538 667.605C729.538 701.866 707.823 723.456 673.416 723.456C669.769 723.456 666.143 723.268 662.496 723.185L662.517 723.227Z" fill="#E6A84F"/>
<path d="M506.301 337.71C544.021 337.71 581.741 337.71 619.441 337.71C628.464 337.71 634.362 342.191 634.237 348.838C634.112 355.278 628.381 359.654 619.899 359.654C543.417 359.654 466.955 359.654 390.472 359.654C379.781 359.654 374.259 353.653 376.989 345.066C379.031 338.669 384.095 337.647 390.014 337.668C428.776 337.752 467.518 337.71 506.28 337.71H506.301Z" fill="#BDC6CE"/>
<path d="M505.662 228.299C543.653 228.299 581.665 228.299 619.656 228.299C628.263 228.299 633.932 232.446 634.224 238.865C634.536 245.513 628.534 250.222 619.469 250.222C542.945 250.222 466.441 250.222 389.917 250.222C381.831 250.222 376.663 245.95 376.538 239.406C376.413 231.8 380.56 228.32 390.105 228.299C428.617 228.257 467.129 228.299 505.662 228.299Z" fill="#BDC6CE"/>
<path d="M505.783 283.005C543.774 283.005 581.786 283.005 619.777 283.005C628.322 283.005 634.032 287.235 634.261 293.675C634.511 300.344 628.551 304.949 619.402 304.949C543.149 304.949 466.896 304.949 390.642 304.949C381.869 304.949 376.638 300.844 376.575 294.029C376.492 286.443 380.639 283.026 390.246 283.026C428.759 282.984 467.292 283.026 505.804 283.026L505.783 283.005Z" fill="#BDC6CE"/>
<path d="M462.29 173.616C486.235 173.616 510.18 173.595 534.146 173.616C543.544 173.616 547.045 176.596 546.962 184.265C546.879 191.997 543.107 195.539 534.333 195.539C486.443 195.602 438.532 195.56 390.642 195.56C389.35 195.56 387.974 195.748 386.745 195.414C380.805 193.747 376.075 190.767 376.617 183.64C377.138 176.7 381.326 173.616 388.079 173.616C412.816 173.616 437.532 173.616 462.269 173.616H462.29Z" fill="#BDC6CE"/>
<path d="M403.007 411.565C383.021 416.192 365.954 411.315 351.574 396.435C338.403 382.806 324.878 369.489 311.353 356.214C303.038 348.045 294.514 340.084 285.845 332.29C280.031 327.08 273.153 323.496 265.734 321.016C286.991 318.244 306.456 321.37 321.773 338.105C325.295 341.585 328.838 345.044 332.36 348.525C350.032 367.28 369.038 384.703 387.648 402.479C392.003 406.626 397.318 409.481 402.986 411.544L403.007 411.565Z" fill="#E6A84F"/>
<path d="M764.368 433.094C764.639 436.679 762.326 439.492 759.7 442.097C737.651 464.167 715.665 486.278 693.491 508.222C686.802 514.849 681.362 514.683 674.569 508.055C665.649 499.344 656.834 490.508 648.102 481.61C642.454 475.837 641.871 469.043 646.289 464.333C650.957 459.353 658.022 459.832 664.107 465.688C668.984 470.377 674.027 474.941 678.361 480.088C682.467 484.965 685.114 485.173 689.782 480.317C707.662 461.812 726.064 443.827 744.236 425.613C748.05 421.778 752.427 420.028 757.637 422.216C762.117 424.112 764.472 427.634 764.347 433.094H764.368Z" fill="#E6F4FB"/>
<path d="M442.327 664.271C372.555 664.271 302.804 664.271 233.032 664.271C228.551 664.271 224.112 664.376 220.903 660.458C214.88 653.101 218.923 642.869 228.676 641.077C230.948 640.66 233.344 640.889 235.699 640.889C373.93 640.889 512.162 640.889 650.393 640.889C653.498 640.889 656.541 640.785 659.667 641.639C665.856 643.369 669.149 647.308 668.607 653.539C668.065 659.687 664.001 663.271 657.895 664.126C655.603 664.459 653.227 664.23 650.872 664.23C581.371 664.23 511.87 664.23 442.348 664.23L442.327 664.271Z" fill="#D09746"/>
<path d="M284.296 564.303C301.739 564.303 319.182 564.178 336.625 564.344C347.483 564.449 353.109 572.806 348.504 581.35C345.92 586.143 341.376 587.519 336.687 587.539C301.28 587.706 265.873 587.727 230.466 587.539C223.777 587.498 217.025 580.641 217.483 575.348C218.046 568.721 223.318 564.345 231.196 564.303C248.91 564.219 266.603 564.282 284.317 564.282L284.296 564.303Z" fill="#D09746"/>
</svg>
